<svg width="95" height="18" viewBox="0 0 95 18" fill="none" xmlns="http://www.w3.org/2000/svg">
<path d="M13.32 5.288C12.936 4.584 12.408 4.048 11.736 3.68C11.064 3.312 10.28 3.128 9.384 3.128C8.392 3.128 7.512 3.352 6.744 3.8C5.976 4.248 5.376 4.888 4.944 5.72C4.512 6.552 4.296 7.512 4.296 8.6C4.296 9.72 4.512 10.696 4.944 11.528C5.392 12.36 6.008 13 6.792 13.448C7.576 13.896 8.488 14.12 9.528 14.12C10.808 14.12 11.856 13.784 12.672 13.112C13.488 12.424 14.024 11.472 14.28 10.256H8.52V7.688H17.592V10.616C17.368 11.784 16.888 12.864 16.152 13.856C15.416 14.848 14.464 15.648 13.296 16.256C12.144 16.848 10.848 17.144 9.408 17.144C7.792 17.144 6.328 16.784 5.016 16.064C3.72 15.328 2.696 14.312 1.944 13.016C1.208 11.72 0.84 10.248 0.84 8.6C0.84 6.952 1.208 5.48 1.944 4.184C2.696 2.872 3.72 1.856 5.016 1.136C6.328 0.4 7.784 0.0319996 9.384 0.0319996C11.272 0.0319996 12.912 0.495999 14.304 1.424C15.696 2.336 16.656 3.624 17.184 5.288H13.32ZM18.8125 13.4609V7.50781C18.8438 6.74219 19.1953 6 19.8672 5.28125C20.6953 4.45312 21.6953 4.03125 22.8672 4.01562V6.35938C22.2578 6.35938 21.7969 6.63281 21.4844 7.17969C21.375 7.36719 21.3203 7.53906 21.3203 7.69531V9.10156H25.7734V7.71875C25.7734 7.0625 25.4141 6.63281 24.6953 6.42969C24.4922 6.36719 24.2891 6.33594 24.0859 6.33594V4.01562C25.1953 4.01562 26.1797 4.39844 27.0391 5.16406C27.7578 5.85156 28.125 6.625 28.1406 7.48438V11.5156H21.3203V13.4609C21.3203 13.8672 21.5469 14.2031 22 14.4688C22.2812 14.625 22.5859 14.7031 22.9141 14.7031V17C21.4609 17 20.3125 16.4141 19.4688 15.2422C19.0312 14.6016 18.8125 14.0078 18.8125 13.4609ZM24.0859 17V14.6797C24.9922 14.6797 25.6172 14.2969 25.9609 13.5312C26.0078 13.4219 26.0469 13.3203 26.0781 13.2266L28.1641 13.9766C27.8828 15.0391 27.25 15.8594 26.2656 16.4375C25.5938 16.8125 24.8672 17 24.0859 17ZM29.4453 17V7.53125C29.4453 6.78125 29.7891 6.03906 30.4766 5.30469C31.3203 4.42969 32.3672 3.98438 33.6172 3.96875V6.45312C32.8984 6.45312 32.3984 6.73438 32.1172 7.29688C32.0234 7.48438 31.9766 7.66406 31.9766 7.83594V17H29.4453ZM34.6484 6.45312V3.96875C36.1328 3.96875 37.2969 4.57031 38.1406 5.77344C38.5938 6.39844 38.8203 6.98438 38.8203 7.53125V17H36.2891V7.83594C36.2891 7.36719 36.0625 6.99219 35.6094 6.71094C35.3281 6.53906 35.0078 6.45312 34.6484 6.45312ZM54.2266 13.4609V7.50781C54.2578 6.74219 54.6094 6 55.2812 5.28125C56.1094 4.45312 57.1094 4.03125 58.2812 4.01562V6.35938C57.6719 6.35938 57.2109 6.63281 56.8984 7.17969C56.7891 7.36719 56.7344 7.53906 56.7344 7.69531V9.10156H61.1875V7.71875C61.1875 7.0625 60.8281 6.63281 60.1094 6.42969C59.9062 6.36719 59.7031 6.33594 59.5 6.33594V4.01562C60.6094 4.01562 61.5938 4.39844 62.4531 5.16406C63.1719 5.85156 63.5391 6.625 63.5547 7.48438V11.5156H56.7344V13.4609C56.7344 13.8672 56.9609 14.2031 57.4141 14.4688C57.6953 14.625 58 14.7031 58.3281 14.7031V17C56.875 17 55.7266 16.4141 54.8828 15.2422C54.4453 14.6016 54.2266 14.0078 54.2266 13.4609ZM59.5 17V14.6797C60.4062 14.6797 61.0312 14.2969 61.375 13.5312C61.4219 13.4219 61.4609 13.3203 61.4922 13.2266L63.5781 13.9766C63.2969 15.0391 62.6641 15.8594 61.6797 16.4375C61.0078 16.8125 60.2812 17 59.5 17ZM64.8594 17V7.53125C64.8594 6.78125 65.2031 6.03906 65.8906 5.30469C66.7344 4.42969 67.7812 3.98438 69.0312 3.96875V6.45312C68.3125 6.45312 67.8125 6.73438 67.5312 7.29688C67.4375 7.48438 67.3906 7.66406 67.3906 7.83594V17H64.8594ZM70.0625 6.45312V3.96875C71.5469 3.96875 72.7109 4.57031 73.5547 5.77344C74.0078 6.39844 74.2344 6.98438 74.2344 7.53125V17H71.7031V7.83594C71.7031 7.36719 71.4766 6.99219 71.0234 6.71094C70.7422 6.53906 70.4219 6.45312 70.0625 6.45312ZM75.0938 13.5781L77.4141 13.1562C77.4141 13.7656 77.7344 14.2266 78.375 14.5391C78.6562 14.6797 78.9297 14.75 79.1953 14.75V17.1172C77.5391 17.1172 76.3438 16.5312 75.6094 15.3594C75.2656 14.7969 75.0938 14.2031 75.0938 13.5781ZM75.2109 7.625C75.2109 6.1875 75.875 5.11719 77.2031 4.41406C77.8438 4.08594 78.4844 3.92188 79.125 3.92188V6.24219C78.375 6.24219 77.875 6.53906 77.625 7.13281C77.5625 7.30469 77.5312 7.46875 77.5312 7.625C77.5312 8.09375 77.9375 8.50781 78.75 8.86719C79.4375 9.14844 80.4844 9.45312 81.8906 9.78125C82.9688 10 83.7344 10.5547 84.1875 11.4453C84.4219 11.9297 84.5391 12.4609 84.5391 13.0391C84.5391 14.5859 83.9141 15.7266 82.6641 16.4609C81.9453 16.8984 81.125 17.1172 80.2031 17.1172V14.7734C80.8281 14.7734 81.3438 14.5625 81.75 14.1406C82 13.8438 82.125 13.5156 82.125 13.1562C82.125 12.6094 81.5156 12.1484 80.2969 11.7734C80.0469 11.6953 79.6562 11.5859 79.125 11.4453C78.3281 11.2578 77.7656 11.1016 77.4375 10.9766C76.2812 10.4609 75.5781 9.70312 75.3281 8.70312C75.25 8.375 75.2109 8.01562 75.2109 7.625ZM80.1797 6.24219V3.92188C81.5547 3.92188 82.6641 4.42969 83.5078 5.44531C84.0391 6.10156 84.3047 6.78906 84.3047 7.50781L81.9844 7.90625C81.9844 7.10938 81.5547 6.58594 80.6953 6.33594C80.5078 6.27344 80.3359 6.24219 80.1797 6.24219ZM85.3984 13.4609V7.50781C85.4297 6.74219 85.7812 6 86.4531 5.28125C87.2812 4.45312 88.2812 4.03125 89.4531 4.01562V6.35938C88.8438 6.35938 88.3828 6.63281 88.0703 7.17969C87.9609 7.36719 87.9062 7.53906 87.9062 7.69531V9.10156H92.3594V7.71875C92.3594 7.0625 92 6.63281 91.2812 6.42969C91.0781 6.36719 90.875 6.33594 90.6719 6.33594V4.01562C91.7812 4.01562 92.7656 4.39844 93.625 5.16406C94.3438 5.85156 94.7109 6.625 94.7266 7.48438V11.5156H87.9062V13.4609C87.9062 13.8672 88.1328 14.2031 88.5859 14.4688C88.8672 14.625 89.1719 14.7031 89.5 14.7031V17C88.0469 17 86.8984 16.4141 86.0547 15.2422C85.6172 14.6016 85.3984 14.0078 85.3984 13.4609ZM90.6719 17V14.6797C91.5781 14.6797 92.2031 14.2969 92.5469 13.5312C92.5938 13.4219 92.6328 13.3203 92.6641 13.2266L94.75 13.9766C94.4688 15.0391 93.8359 15.8594 92.8516 16.4375C92.1797 16.8125 91.4531 17 90.6719 17Z" fill="#0F0B18"/>
<path d="M46.6509 17.168C45.4829 17.168 44.4269 16.968 43.4829 16.568C42.5549 16.168 41.8189 15.592 41.2749 14.84C40.7309 14.088 40.4509 13.2 40.4349 12.176H44.0349C44.0829 12.864 44.3229 13.408 44.7549 13.808C45.2029 14.208 45.8109 14.408 46.5789 14.408C47.3629 14.408 47.9789 14.224 48.4269 13.856C48.8749 13.472 49.0989 12.976 49.0989 12.368C49.0989 11.872 48.9469 11.464 48.6429 11.144C48.3389 10.824 47.9549 10.576 47.4909 10.4C47.0429 10.208 46.4189 10 45.6189 9.776C44.5309 9.456 43.6429 9.144 42.9549 8.84C42.2829 8.52 41.6989 8.048 41.2029 7.424C40.7229 6.784 40.4829 5.936 40.4829 4.88C40.4829 3.888 40.7309 3.024 41.2269 2.288C41.7229 1.552 42.4189 0.991999 43.3149 0.607999C44.2109 0.208 45.2349 0.0079999 46.3869 0.0079999C48.1149 0.0079999 49.5149 0.432 50.5869 1.28C51.6749 2.112 52.2749 3.28 52.3869 4.784H48.6909C48.6589 4.208 48.4109 3.736 47.9469 3.368C47.4989 2.984 46.8989 2.792 46.1469 2.792C45.4909 2.792 44.9629 2.96 44.5629 3.296C44.1789 3.632 43.9869 4.12 43.9869 4.76C43.9869 5.208 44.1309 5.584 44.4189 5.888C44.7229 6.176 45.0909 6.416 45.5229 6.608C45.9709 6.784 46.5949 6.992 47.3949 7.232C48.4829 7.552 49.3709 7.872 50.0589 8.192C50.7469 8.512 51.3389 8.992 51.8349 9.632C52.3309 10.272 52.5789 11.112 52.5789 12.152C52.5789 13.048 52.3469 13.88 51.8829 14.648C51.4189 15.416 50.7389 16.032 49.8429 16.496C48.9469 16.944 47.8829 17.168 46.6509 17.168Z" fill="#ED1E79"/>
</svg>
