<svg width="375" height="812" viewBox="0 0 375 812" fill="none" xmlns="http://www.w3.org/2000/svg">
<rect width="375" height="812" fill="white"/>
<path d="M259.12 277.022C257.707 277.171 256.405 277.991 255.699 279.257C248.039 293 218.142 344.175 198.508 390.881C195.644 397.696 192.818 404.475 191.108 408.497C190.959 408.833 190.847 409.168 190.736 409.503C197.02 414.345 203.379 419.001 210.035 423.284L260.087 278.251C260.31 277.618 259.789 276.911 259.12 276.985V277.022ZM208.882 406.598C207.469 408.795 204.569 409.429 202.412 408.051C200.218 406.635 199.586 403.73 200.962 401.57C202.375 399.372 205.275 398.739 207.432 400.117C209.626 401.533 210.258 404.438 208.845 406.598H208.882ZM194.343 434.941L172.961 483.137C175.936 477.773 180.696 473.341 187.426 470.734C192.818 468.574 198.136 468.388 202.747 469.989C202.003 464.849 202.486 459.486 204.42 454.421L208.101 444.625C205.87 442.949 203.639 441.31 201.334 439.746C198.991 438.182 196.648 436.58 194.343 434.904V434.941Z" fill="#38232D"/>
<path d="M220.596 410.918C254.249 373.45 277.081 336.987 286.154 324.473C287.009 323.281 287.232 321.754 286.749 320.413C286.526 319.78 285.708 319.593 285.187 320.078L236.065 366.261L220.596 410.956V410.918Z" fill="#38232D"/>
<path d="M194.12 426.599L200.218 426.375L198.322 421.831C196.909 418.516 193.227 421.421 194.64 418.107C194.938 417.362 193.116 418.032 193.525 416.989L191.108 416.803L190.067 413.451C189.695 412.259 188.17 411.887 187.278 412.781L170.321 430.137C162.066 438.554 149.869 441.534 138.565 438.182C124.36 433.936 108.37 437.735 97.549 449.281C95.9872 451.031 94.6113 452.819 93.4214 454.681C84.7944 468.201 86.7652 483.844 97.7349 493.64C98.9621 494.72 100.226 495.688 101.565 496.545C113.725 504.329 130.086 502.243 139.903 491.033L194.045 428.982C194.417 428.535 194.566 427.939 194.38 427.381L194.157 426.636L194.12 426.599ZM138.527 476.135C137.152 478.295 135.441 480.604 133.321 483.099C126.814 490.586 115.919 491.926 107.849 486.787C106.957 486.228 106.102 485.558 105.321 484.85C98.0324 478.332 96.7309 467.941 102.457 458.927C103.238 457.698 104.168 456.506 105.209 455.352C110.824 449.355 118.559 446.487 126.182 446.897C129.603 447.083 132.875 448.238 135.627 450.249C142.506 455.203 147.154 462.726 138.602 476.135H138.527Z" fill="#38232D"/>
<path d="M172.961 483.137L170.804 488.016C171.362 486.34 172.106 484.701 172.961 483.137Z" fill="#38232D"/>
<path d="M242.944 525.894C236.623 531.853 228.33 535.615 219.852 537.105C217.323 537.589 214.758 537.887 212.192 537.961C207.358 538.148 202.486 537.663 197.801 536.434C191.963 534.87 186.497 532.151 181.886 528.091C177.014 523.771 173.445 518.184 171.325 512.113C168.536 504.217 168.239 495.539 170.804 488.016L172.961 483.137C175.936 477.773 180.696 473.341 187.426 470.734C192.818 468.574 198.136 468.387 202.747 469.989C207.544 471.665 211.597 475.278 214.311 480.716C216.58 485.185 217.1 490.064 217.658 494.906C216.245 490.474 214.944 485.781 212.192 482.056C210.035 479.151 207.283 476.507 203.937 475.129C203.305 474.868 202.598 474.645 201.929 474.496C193.971 472.596 185.084 478.034 181.105 484.738C179.208 488.239 178.613 492.336 178.836 496.284C178.874 497.066 178.948 497.886 179.06 498.705C180.064 505.707 183.671 512.784 189.025 517.104C194.789 521.685 202.338 523.324 209.589 522.728C209.961 522.728 210.295 522.654 210.63 522.616C213.828 522.244 217.026 521.536 220.075 520.456C222.492 519.6 224.798 518.445 226.917 517.03C234.578 511.853 239.077 502.765 239.56 493.602C239.932 487.904 238.668 482.243 236.325 477.103C233.797 471.404 230.376 466.302 226.285 461.46C220.93 455.203 214.721 449.69 208.101 444.662C205.87 442.986 203.639 441.348 201.334 439.783C198.991 438.219 196.648 436.617 194.343 434.941C190.624 432.297 187.017 429.504 183.559 426.71C178.056 422.278 172.292 417.25 167.011 412.594C161.396 407.678 155.447 402.426 150.836 396.355C144.105 387.752 139.345 376.765 139.271 365.628C138.825 341.084 163.628 320.673 187.24 327.787C194.901 329.91 202.003 335.683 204.085 343.579C205.387 348.533 204.457 354.12 201.297 358.142C200.516 359.11 199.623 359.967 198.656 360.637C200.255 358.85 201.297 356.689 201.78 354.455C203.788 345.255 197.466 337.545 188.839 335.236C178.762 332.517 167.644 336.13 160.69 343.803C153.959 350.954 151.245 361.42 154.294 370.731C158.31 385.182 172.18 394.717 183.633 403.916C186.013 405.816 188.393 407.715 190.773 409.54C197.057 414.382 203.416 419.038 210.072 423.321C210.63 423.693 211.188 424.029 211.708 424.364C226.731 434.308 240.788 446.413 249.861 462.317C252.575 467.121 254.844 472.298 256.257 477.662C260.793 494.608 255.959 513.864 242.982 525.894H242.944Z" fill="#38232D"/>
<path d="M285.707 317.321C285.484 316.688 284.666 316.502 284.146 316.986L235.024 363.17L219.554 407.864C253.207 370.396 276.039 333.933 285.113 321.418C285.968 320.227 286.191 318.7 285.707 317.359V317.321Z" fill="#ED1E79"/>
<path d="M248.82 459.3C239.746 443.359 225.69 431.291 210.667 421.347C210.11 421.012 209.552 420.639 209.031 420.304L259.083 275.272C259.306 274.639 258.785 273.931 258.116 274.005C256.703 274.154 255.401 274.974 254.695 276.24C247.035 289.984 217.138 341.158 197.504 387.864C194.64 394.68 191.814 401.458 190.104 405.481C189.955 405.816 189.843 406.151 189.732 406.486C187.352 404.624 184.972 402.762 182.592 400.862C171.139 391.663 157.269 382.128 153.253 367.677C150.204 358.366 152.918 347.9 159.649 340.749C166.602 333.113 177.721 329.463 187.798 332.182C196.425 334.529 202.784 342.238 200.739 351.401C200.255 353.635 199.214 355.796 197.615 357.583C198.582 356.913 199.474 356.056 200.255 355.088C203.416 351.066 204.346 345.516 203.044 340.525C200.962 332.629 193.897 326.893 186.199 324.733C162.549 317.582 137.784 338.03 138.23 362.574C138.304 373.711 143.064 384.698 149.795 393.301C154.406 399.372 160.355 404.624 165.97 409.54C169.54 412.669 173.296 415.946 177.052 419.15L169.28 427.083C161.025 435.5 148.828 438.48 137.523 435.128C123.318 430.882 107.329 434.681 96.5077 446.227C94.9459 447.977 93.5701 449.765 92.3801 451.627C83.7531 465.147 85.7239 480.79 96.6937 490.586C97.9208 491.666 99.1851 492.634 100.524 493.491C112.683 501.275 129.045 499.189 138.862 487.979L189.918 429.429C191.033 430.249 192.149 431.105 193.302 431.925L171.92 480.12C171.065 481.684 170.321 483.286 169.763 484.999C167.197 492.522 167.495 501.2 170.284 509.096C172.403 515.167 176.01 520.791 180.844 525.075C185.456 529.134 190.922 531.853 196.76 533.418C201.408 534.647 206.317 535.131 211.151 534.945C213.717 534.833 216.282 534.535 218.811 534.088C227.289 532.598 235.582 528.836 241.903 522.877C254.881 510.847 259.752 491.591 255.178 474.645C253.728 469.281 251.497 464.104 248.782 459.3H248.82ZM137.486 473.118C136.11 475.278 134.4 477.587 132.28 480.083C125.773 487.569 114.877 488.91 106.808 483.77C105.916 483.211 105.06 482.541 104.28 481.833C96.9911 475.315 95.6897 464.924 101.416 455.91C102.197 454.681 103.127 453.49 104.168 452.335C109.783 446.338 117.518 443.471 125.141 443.88C128.562 444.067 131.834 445.221 134.586 447.232C141.465 452.186 146.113 459.709 137.561 473.118H137.486ZM199.958 398.479C201.371 396.281 204.271 395.648 206.428 397.026C208.622 398.441 209.254 401.346 207.841 403.507C206.428 405.704 203.528 406.337 201.371 404.959C199.177 403.544 198.545 400.639 199.921 398.479H199.958ZM238.556 490.548C238.073 499.711 233.574 508.799 225.913 513.976C223.794 515.391 221.488 516.508 219.071 517.402C216.022 518.482 212.824 519.19 209.626 519.562C209.291 519.6 208.92 519.637 208.585 519.674C201.334 520.307 193.748 518.668 188.021 514.05C182.704 509.73 179.06 502.653 178.056 495.651C177.944 494.832 177.87 494.049 177.832 493.23C177.647 489.282 178.204 485.185 180.101 481.684C184.08 474.943 192.967 469.505 200.925 471.442C201.631 471.591 202.301 471.814 202.933 472.075C206.279 473.453 209.031 476.135 211.188 479.002C213.94 482.727 215.278 487.457 216.654 491.852C216.134 487.01 215.613 482.131 213.307 477.662C210.593 472.224 206.503 468.611 201.743 466.935C200.999 461.795 201.482 456.432 203.416 451.367L207.097 441.571C213.717 446.599 219.964 452.111 225.281 458.369C229.372 463.211 232.83 468.313 235.321 474.012C237.701 479.151 238.928 484.813 238.556 490.511V490.548Z" fill="#ED1E79"/>
</svg>
