<svg width="24" height="24" viewBox="0 0 24 24" fill="none" xmlns="http://www.w3.org/2000/svg">
<g clip-path="url(#clip0_24865_2563)">
<path d="M21.75 2.25H18.5625V1.5C18.5625 1.30109 18.4835 1.11032 18.3428 0.96967C18.2022 0.829018 18.0114 0.75 17.8125 0.75C17.6136 0.75 17.4228 0.829018 17.2822 0.96967C17.1415 1.11032 17.0625 1.30109 17.0625 1.5V2.25H6.9375V1.5C6.9375 1.30109 6.85848 1.11032 6.71783 0.96967C6.57718 0.829018 6.38641 0.75 6.1875 0.75C5.98859 0.75 5.79782 0.829018 5.65717 0.96967C5.51652 1.11032 5.4375 1.30109 5.4375 1.5V2.25H2.25C1.65326 2.25 1.08097 2.48705 0.65901 2.90901C0.237053 3.33097 0 3.90326 0 4.5L0 21C0 21.5967 0.237053 22.169 0.65901 22.591C1.08097 23.0129 1.65326 23.25 2.25 23.25H21.75C22.3467 23.25 22.919 23.0129 23.341 22.591C23.7629 22.169 24 21.5967 24 21V4.5C24 3.90326 23.7629 3.33097 23.341 2.90901C22.919 2.48705 22.3467 2.25 21.75 2.25ZM2.25 3.75H5.4375V4.5C5.4375 4.69891 5.51652 4.88968 5.65717 5.03033C5.79782 5.17098 5.98859 5.25 6.1875 5.25C6.38641 5.25 6.57718 5.17098 6.71783 5.03033C6.85848 4.88968 6.9375 4.69891 6.9375 4.5V3.75H17.0625V4.5C17.0625 4.69891 17.1415 4.88968 17.2822 5.03033C17.4228 5.17098 17.6136 5.25 17.8125 5.25C18.0114 5.25 18.2022 5.17098 18.3428 5.03033C18.4835 4.88968 18.5625 4.69891 18.5625 4.5V3.75H21.75C21.9489 3.75 22.1397 3.82902 22.2803 3.96967C22.421 4.11032 22.5 4.30109 22.5 4.5V6.375H1.5V4.5C1.5 4.30109 1.57902 4.11032 1.71967 3.96967C1.86032 3.82902 2.05109 3.75 2.25 3.75ZM21.75 21.75H2.25C2.05109 21.75 1.86032 21.671 1.71967 21.5303C1.57902 21.3897 1.5 21.1989 1.5 21V7.875H22.5V21C22.5 21.1989 22.421 21.3897 22.2803 21.5303C22.1397 21.671 21.9489 21.75 21.75 21.75Z" fill="#ED1E79"/>
<path d="M16.8748 10.2787C16.7166 10.1586 16.5172 10.1061 16.3203 10.1328C16.1235 10.1595 15.9453 10.2632 15.8248 10.4212L10.3461 17.5912L8.14107 15.2362C8.0736 15.1643 7.99264 15.1064 7.90279 15.0658C7.81294 15.0252 7.71598 15.0027 7.61743 14.9995C7.51889 14.9964 7.42069 15.0127 7.32845 15.0475C7.2362 15.0823 7.15172 15.135 7.07982 15.2025C7.00792 15.2699 6.95002 15.3509 6.90941 15.4407C6.8688 15.5306 6.84629 15.6275 6.84315 15.7261C6.84002 15.8246 6.85633 15.9228 6.89114 16.0151C6.92596 16.1073 6.9786 16.1918 7.04607 16.2637L9.85857 19.2637C9.92883 19.3384 10.0137 19.3979 10.1078 19.4386C10.202 19.4792 10.3035 19.5001 10.4061 19.5H10.4436C10.5527 19.4942 10.6592 19.4648 10.7557 19.4136C10.8522 19.3624 10.9364 19.2908 11.0023 19.2037L17.0023 11.3287C17.1241 11.1724 17.1791 10.9741 17.1552 10.7774C17.1313 10.5807 17.0305 10.4014 16.8748 10.2787Z" fill="#ED1E79"/>
</g>
<defs>
<clipPath id="clip0_24865_2563">
<rect width="24" height="24" fill="white"/>
</clipPath>
</defs>
</svg>
