<svg width="52" height="52" viewBox="0 0 52 52" fill="none" xmlns="http://www.w3.org/2000/svg">
<g filter="url(#filter0_d_24731_214)">
<rect x="4" y="4" width="44" height="44" rx="8" fill="white"/>
<g clip-path="url(#clip0_24731_214)">
<path d="M32.5461 26.763C32.5701 24.893 33.5501 23.166 35.1431 22.187C34.1341 20.745 32.5031 19.864 30.7441 19.809C28.8931 19.615 27.0991 20.916 26.1561 20.916C25.1951 20.916 23.7431 19.828 22.1791 19.86C20.1221 19.927 18.2501 21.068 17.2491 22.867C15.1181 26.557 16.7071 31.981 18.7491 34.964C19.7711 36.425 20.9641 38.056 22.5271 37.999C24.0561 37.936 24.6271 37.024 26.4721 37.024C28.3001 37.024 28.8361 37.999 30.4301 37.962C32.0701 37.935 33.1041 36.495 34.0901 35.02C34.8241 33.979 35.3891 32.829 35.7631 31.612C33.8151 30.788 32.5481 28.879 32.5461 26.763Z" fill="#0F0B18"/>
<path d="M29.5351 17.847C30.4291 16.773 30.8701 15.393 30.7631 14C29.3971 14.144 28.1341 14.797 27.2281 15.829C26.3331 16.848 25.8791 18.18 25.9671 19.534C27.3521 19.548 28.6671 18.926 29.5351 17.847Z" fill="#0F0B18"/>
</g>
</g>
<defs>
<filter id="filter0_d_24731_214" x="0" y="0" width="52" height="52" filterUnits="userSpaceOnUse" color-interpolation-filters="sRGB">
<feFlood flood-opacity="0" result="BackgroundImageFix"/>
<feColorMatrix in="SourceAlpha" type="matrix" values="0 0 0 0 0 0 0 0 0 0 0 0 0 0 0 0 0 0 127 0" result="hardAlpha"/>
<feOffset/>
<feGaussianBlur stdDeviation="2"/>
<feComposite in2="hardAlpha" operator="out"/>
<feColorMatrix type="matrix" values="0 0 0 0 0 0 0 0 0 0 0 0 0 0 0 0 0 0 0.15 0"/>
<feBlend mode="normal" in2="BackgroundImageFix" result="effect1_dropShadow_24731_214"/>
<feBlend mode="normal" in="SourceGraphic" in2="effect1_dropShadow_24731_214" result="shape"/>
</filter>
<clipPath id="clip0_24731_214">
<rect width="24" height="24" fill="white" transform="translate(14 14)"/>
</clipPath>
</defs>
</svg>
