<svg width="33" height="16" viewBox="0 0 33 16" fill="none" xmlns="http://www.w3.org/2000/svg">
<g clip-path="url(#clip0_24839_3366)">
<path d="M13.4109 1.23203H12.8141V0.62814C12.8141 0.283106 12.5344 0.00341797 12.1894 0.00341797C11.8444 0.00341797 11.5647 0.283106 11.5647 0.62814V1.23203H5.4353V0.62814C5.4353 0.283106 5.15561 0.00341797 4.81058 0.00341797C4.46555 0.00341797 4.18586 0.283106 4.18586 0.62814V1.23203H3.58909C1.88576 1.23203 0.5 2.61778 0.5 4.32109V12.9072C0.5 14.6105 1.88576 15.9963 3.58909 15.9963H13.4109C15.1142 15.9963 16.5 14.6105 16.5 12.9072V4.32109C16.5 2.61778 15.1142 1.23203 13.4109 1.23203ZM3.58909 2.48147H4.18586V3.69968C4.18586 4.04471 4.46555 4.3244 4.81058 4.3244C5.15561 4.3244 5.4353 4.04471 5.4353 3.69968V2.48147H11.5647V3.69968C11.5647 4.04471 11.8444 4.3244 12.1894 4.3244C12.5345 4.3244 12.8141 4.04471 12.8141 3.69968V2.48147H13.4109C14.4253 2.48147 15.2506 3.30673 15.2506 4.32109V4.91789H1.74944V4.32109C1.74944 3.30673 2.5747 2.48147 3.58909 2.48147ZM13.4109 14.7469H3.58909C2.5747 14.7469 1.74944 13.9216 1.74944 12.9072V6.16733H15.2506V12.9072C15.2506 13.9216 14.4253 14.7469 13.4109 14.7469ZM6.04962 8.62458C6.04962 8.96961 5.76993 9.2493 5.4249 9.2493H4.19629C3.85126 9.2493 3.57157 8.96961 3.57157 8.62458C3.57157 8.27954 3.85126 7.99986 4.19629 7.99986H5.4249C5.7699 7.99986 6.04962 8.27954 6.04962 8.62458ZM13.4285 8.62458C13.4285 8.96961 13.1488 9.2493 12.8037 9.2493H11.5751C11.2301 9.2493 10.9504 8.96961 10.9504 8.62458C10.9504 8.27954 11.2301 7.99986 11.5751 7.99986H12.8037C13.1487 7.99986 13.4285 8.27954 13.4285 8.62458ZM9.73548 8.62458C9.73548 8.96961 9.45579 9.2493 9.11076 9.2493H7.88215C7.53712 9.2493 7.25743 8.96961 7.25743 8.62458C7.25743 8.27954 7.53712 7.99986 7.88215 7.99986H9.11076C9.45576 7.99986 9.73548 8.27954 9.73548 8.62458ZM6.04962 12.3104C6.04962 12.6555 5.76993 12.9352 5.4249 12.9352H4.19629C3.85126 12.9352 3.57157 12.6555 3.57157 12.3104C3.57157 11.9654 3.85126 11.6857 4.19629 11.6857H5.4249C5.7699 11.6857 6.04962 11.9654 6.04962 12.3104ZM13.4285 12.3104C13.4285 12.6555 13.1488 12.9352 12.8037 12.9352H11.5751C11.2301 12.9352 10.9504 12.6555 10.9504 12.3104C10.9504 11.9654 11.2301 11.6857 11.5751 11.6857H12.8037C13.1487 11.6857 13.4285 11.9654 13.4285 12.3104ZM9.73548 12.3104C9.73548 12.6555 9.45579 12.9352 9.11076 12.9352H7.88215C7.53712 12.9352 7.25743 12.6555 7.25743 12.3104C7.25743 11.9654 7.53712 11.6857 7.88215 11.6857H9.11076C9.45576 11.6857 9.73548 11.9654 9.73548 12.3104Z" fill="#0F0B18"/>
</g>
<path d="M24.4995 8.7813L27.7994 5.48145L28.7422 6.42426L24.4995 10.6669L20.2569 6.42426L21.1997 5.48144L24.4995 8.7813Z" fill="#0F0B18"/>
<defs>
<clipPath id="clip0_24839_3366">
<rect width="16" height="16" fill="white" transform="translate(0.5)"/>
</clipPath>
</defs>
</svg>
