<svg width="25" height="24" viewBox="0 0 25 24" fill="none" xmlns="http://www.w3.org/2000/svg">
<g clip-path="url(#clip0_25021_1040)">
<path d="M19.8437 22.7316C20.0495 22.7316 20.2526 22.8099 20.407 22.959C21.3944 23.9125 22.8347 24.23 24.1151 23.8326C23.2911 22.1159 23.1769 20.1492 23.8154 18.3283C24.6079 16.0627 24.8065 13.7918 23.9046 11.5143C23.1123 9.51356 21.5832 7.85132 19.6481 6.90344C19.7671 7.53814 19.8271 8.18483 19.8271 8.83835C19.8272 11.6123 18.7605 14.2213 16.8237 16.1848C14.8867 18.1485 12.2902 19.2527 9.51258 19.294C8.99652 19.3021 8.48277 19.2717 7.97485 19.2047C9.50141 21.8806 12.3805 23.6233 15.5442 23.6702C16.9282 23.6916 18.257 23.4017 19.4946 22.8107C19.606 22.7574 19.7253 22.7316 19.8437 22.7316Z" fill="#4F4F59"/>
<path d="M9.53549 0.00176341C4.60801 -0.0960782 0.511908 3.89018 0.500027 8.81659C0.497116 10.0202 0.732066 11.1872 1.1984 12.2852C1.20518 12.3012 1.21147 12.3174 1.21718 12.3338C1.85573 14.1548 1.74161 16.1214 0.917532 17.8381C2.19803 18.2353 3.63815 17.918 4.62559 16.9645C4.86886 16.7295 5.23284 16.6703 5.53807 16.8162C6.77543 17.4072 8.10446 17.698 9.48838 17.6758C14.3773 17.6032 18.2069 13.7213 18.2069 8.83834C18.2069 4.06192 14.3169 0.0978822 9.53549 0.00176341ZM4.63094 10.1583C3.923 10.1583 3.34908 9.58537 3.34908 8.87861C3.34908 8.17186 3.923 7.59889 4.63094 7.59889C5.33888 7.59889 5.9128 8.17186 5.9128 8.87861C5.91274 9.58537 5.33888 10.1583 4.63094 10.1583ZM9.35347 10.1583C8.64553 10.1583 8.07161 9.58537 8.07161 8.87861C8.07161 8.17186 8.64553 7.59889 9.35347 7.59889C10.0614 7.59889 10.6353 8.17186 10.6353 8.87861C10.6353 9.58537 10.0614 10.1583 9.35347 10.1583ZM14.0761 10.1583C13.3681 10.1583 12.7942 9.58537 12.7942 8.87861C12.7942 8.17186 13.3681 7.59889 14.0761 7.59889C14.784 7.59889 15.3579 8.17186 15.3579 8.87861C15.3579 9.58537 14.784 10.1583 14.0761 10.1583Z" fill="#4F4F59"/>
</g>
<defs>
<clipPath id="clip0_25021_1040">
<rect width="24" height="24" fill="white" transform="translate(0.5)"/>
</clipPath>
</defs>
</svg>
