<svg width="16" height="17" viewBox="0 0 16 17" fill="none" xmlns="http://www.w3.org/2000/svg">
<g clip-path="url(#clip0_24860_3388)">
<path d="M8.5 14.5C8.5 14.8687 8.164 15.1667 7.75 15.1667H3.25C1.18225 15.1667 -0.5 13.6713 -0.5 11.8333V3.83333C-0.5 1.99533 1.18225 0.5 3.25 0.5H12.25C14.3177 0.5 16 1.99533 16 3.83333V7.83333C16 8.202 15.664 8.5 15.25 8.5C14.836 8.5 14.5 8.202 14.5 7.83333V3.83333C14.5 2.73067 13.4905 1.83333 12.25 1.83333H3.25C2.0095 1.83333 1 2.73067 1 3.83333V8.47267L3.106 6.60067C4.255 5.57867 6.12475 5.57867 7.2745 6.60067L11.2802 10.1613C11.5735 10.422 11.5735 10.8433 11.2802 11.104C11.134 11.234 10.942 11.2993 10.75 11.2993C10.558 11.2993 10.366 11.234 10.2198 11.104L6.214 7.54333C5.65 7.04267 4.732 7.042 4.1665 7.54333L1 10.358V11.8333C1 12.936 2.0095 13.8333 3.25 13.8333H7.75C8.164 13.8333 8.5 14.1313 8.5 14.5ZM10.75 2.83333C11.9905 2.83333 13 3.73067 13 4.83333C13 5.936 11.9905 6.83333 10.75 6.83333C9.5095 6.83333 8.5 5.936 8.5 4.83333C8.5 3.73067 9.5095 2.83333 10.75 2.83333ZM10.75 4.16667C10.3368 4.16667 10 4.46533 10 4.83333C10 5.20133 10.3368 5.5 10.75 5.5C11.1632 5.5 11.5 5.20133 11.5 4.83333C11.5 4.46533 11.1632 4.16667 10.75 4.16667ZM16.75 12.5H14.5V10.5C14.5 10.1313 14.164 9.83333 13.75 9.83333C13.336 9.83333 13 10.1313 13 10.5V12.5H10.75C10.336 12.5 10 12.798 10 13.1667C10 13.5353 10.336 13.8333 10.75 13.8333H13V15.8333C13 16.202 13.336 16.5 13.75 16.5C14.164 16.5 14.5 16.202 14.5 15.8333V13.8333H16.75C17.164 13.8333 17.5 13.5353 17.5 13.1667C17.5 12.798 17.164 12.5 16.75 12.5Z" fill="#4F4F59"/>
</g>
<defs>
<clipPath id="clip0_24860_3388">
<rect width="16" height="16" fill="white" transform="translate(0 0.5)"/>
</clipPath>
</defs>
</svg>
