<svg width="16" height="16" viewBox="0 0 16 16" fill="none" xmlns="http://www.w3.org/2000/svg">
<g clip-path="url(#clip0_25134_6423)">
<path d="M15.7508 12H15.2508C15.1845 12 15.1209 11.9737 15.074 11.9268C15.0271 11.8799 15.0008 11.8163 15.0008 11.75C15.0008 11.6837 15.0271 11.6201 15.074 11.5732C15.1209 11.5263 15.1845 11.5 15.2508 11.5H15.7508" fill="#0F0B18"/>
<path d="M1.75079 2.5H4.25079C4.3171 2.5 4.38069 2.47366 4.42757 2.42678C4.47445 2.37989 4.50079 2.3163 4.50079 2.25C4.50079 2.1837 4.47445 2.12011 4.42757 2.07322C4.38069 2.02634 4.3171 2 4.25079 2H1.75079C1.68449 2 1.6209 2.02634 1.57402 2.07322C1.52713 2.12011 1.50079 2.1837 1.50079 2.25C1.50079 2.3163 1.52713 2.37989 1.57402 2.42678C1.6209 2.47366 1.68449 2.5 1.75079 2.5Z" fill="#0F0B18"/>
<path d="M1.75079 3.5H5.75079C5.8171 3.5 5.88069 3.47366 5.92757 3.42678C5.97445 3.37989 6.00079 3.3163 6.00079 3.25C6.00079 3.1837 5.97445 3.12011 5.92757 3.07322C5.88069 3.02634 5.8171 3 5.75079 3H1.75079C1.68449 3 1.6209 3.02634 1.57402 3.07322C1.52713 3.12011 1.50079 3.1837 1.50079 3.25C1.50079 3.3163 1.52713 3.37989 1.57402 3.42678C1.6209 3.47366 1.68449 3.5 1.75079 3.5Z" fill="#0F0B18"/>
<path d="M3.75079 4.5H1.75079C1.68449 4.5 1.6209 4.52634 1.57402 4.57322C1.52713 4.62011 1.50079 4.6837 1.50079 4.75V6.75C1.50079 6.8163 1.52713 6.87989 1.57402 6.92678C1.6209 6.97366 1.68449 7 1.75079 7H3.75079C3.8171 7 3.88069 6.97366 3.92757 6.92678C3.97445 6.87989 4.00079 6.8163 4.00079 6.75V4.75C4.00079 4.6837 3.97445 4.62011 3.92757 4.57322C3.88069 4.52634 3.8171 4.5 3.75079 4.5ZM3.14726 5L2.00079 6.14647V5H3.14726ZM2.35432 6.5L3.50079 5.35353V6.5H2.35432Z" fill="#0F0B18"/>
<path d="M4.50079 4.75C4.50079 4.8163 4.52713 4.87989 4.57402 4.92678C4.6209 4.97366 4.68449 5 4.75079 5H10.7508C10.8171 5 10.8807 4.97366 10.9276 4.92678C10.9745 4.87989 11.0008 4.8163 11.0008 4.75C11.0008 4.6837 10.9745 4.62011 10.9276 4.57322C10.8807 4.52634 10.8171 4.5 10.7508 4.5H4.75079C4.68449 4.5 4.6209 4.52634 4.57402 4.57322C4.52713 4.62011 4.50079 4.6837 4.50079 4.75Z" fill="#0F0B18"/>
<path d="M10.7508 5.5H4.75079C4.68449 5.5 4.6209 5.52634 4.57402 5.57322C4.52713 5.62011 4.50079 5.6837 4.50079 5.75C4.50079 5.8163 4.52713 5.87989 4.57402 5.92678C4.6209 5.97366 4.68449 6 4.75079 6H10.7508C10.8171 6 10.8807 5.97366 10.9276 5.92678C10.9745 5.87989 11.0008 5.8163 11.0008 5.75C11.0008 5.6837 10.9745 5.62011 10.9276 5.57322C10.8807 5.52634 10.8171 5.5 10.7508 5.5Z" fill="#0F0B18"/>
<path d="M4.75079 7H8.25079C8.3171 7 8.38069 6.97366 8.42757 6.92678C8.47445 6.87989 8.50079 6.8163 8.50079 6.75C8.50079 6.6837 8.47445 6.62011 8.42757 6.57322C8.38069 6.52634 8.3171 6.5 8.25079 6.5H4.75079C4.68449 6.5 4.6209 6.52634 4.57402 6.57322C4.52713 6.62011 4.50079 6.6837 4.50079 6.75C4.50079 6.8163 4.52713 6.87989 4.57402 6.92678C4.6209 6.97366 4.68449 7 4.75079 7Z" fill="#0F0B18"/>
<path d="M3.75079 8H1.75079C1.68449 8 1.6209 8.02634 1.57402 8.07322C1.52713 8.12011 1.50079 8.1837 1.50079 8.25V10.25C1.50079 10.3163 1.52713 10.3799 1.57402 10.4268C1.6209 10.4737 1.68449 10.5 1.75079 10.5H3.75079C3.8171 10.5 3.88069 10.4737 3.92757 10.4268C3.97445 10.3799 4.00079 10.3163 4.00079 10.25V8.25C4.00079 8.1837 3.97445 8.12011 3.92757 8.07322C3.88069 8.02634 3.8171 8 3.75079 8ZM3.14726 8.5L2.00079 9.64647V8.5H3.14726ZM2.35432 10L3.50079 8.85353V10H2.35432Z" fill="#0F0B18"/>
<path d="M9.00079 8H4.75079C4.68449 8 4.6209 8.02634 4.57402 8.07322C4.52713 8.12011 4.50079 8.1837 4.50079 8.25C4.50079 8.3163 4.52713 8.37989 4.57402 8.42678C4.6209 8.47366 4.68449 8.5 4.75079 8.5H9.00079C9.0671 8.5 9.13069 8.47366 9.17757 8.42678C9.22445 8.37989 9.25079 8.3163 9.25079 8.25C9.25079 8.1837 9.22445 8.12011 9.17757 8.07322C9.13069 8.02634 9.0671 8 9.00079 8Z" fill="#0F0B18"/>
<path d="M7.75079 9H4.75079C4.68449 9 4.6209 9.02634 4.57402 9.07322C4.52713 9.12011 4.50079 9.1837 4.50079 9.25C4.50079 9.3163 4.52713 9.37989 4.57402 9.42678C4.6209 9.47366 4.68449 9.5 4.75079 9.5H7.75079C7.8171 9.5 7.88069 9.47366 7.92757 9.42678C7.97445 9.37989 8.00079 9.3163 8.00079 9.25C8.00079 9.1837 7.97445 9.12011 7.92757 9.07322C7.88069 9.02634 7.8171 9 7.75079 9Z" fill="#0F0B18"/>
<path d="M4.75079 10.5H6.75079C6.8171 10.5 6.88069 10.4737 6.92757 10.4268C6.97445 10.3799 7.00079 10.3163 7.00079 10.25C7.00079 10.1837 6.97445 10.1201 6.92757 10.0732C6.88069 10.0263 6.8171 10 6.75079 10H4.75079C4.68449 10 4.6209 10.0263 4.57402 10.0732C4.52713 10.1201 4.50079 10.1837 4.50079 10.25C4.50079 10.3163 4.52713 10.3799 4.57402 10.4268C4.6209 10.4737 4.68449 10.5 4.75079 10.5Z" fill="#0F0B18"/>
<path d="M3.75079 11.5H1.75079C1.68449 11.5 1.6209 11.5263 1.57402 11.5732C1.52713 11.6201 1.50079 11.6837 1.50079 11.75V13.75C1.50079 13.8163 1.52713 13.8799 1.57402 13.9268C1.6209 13.9737 1.68449 14 1.75079 14H3.75079C3.8171 14 3.88069 13.9737 3.92757 13.9268C3.97445 13.8799 4.00079 13.8163 4.00079 13.75V11.75C4.00079 11.6837 3.97445 11.6201 3.92757 11.5732C3.88069 11.5263 3.8171 11.5 3.75079 11.5ZM3.50079 13.5H2.00079V12H3.50079V13.5Z" fill="#0F0B18"/>
<path d="M7.25079 11.5H4.75079C4.68449 11.5 4.6209 11.5263 4.57402 11.5732C4.52713 11.6201 4.50079 11.6837 4.50079 11.75C4.50079 11.8163 4.52713 11.8799 4.57402 11.9268C4.6209 11.9737 4.68449 12 4.75079 12H7.25079C7.3171 12 7.38069 11.9737 7.42757 11.9268C7.47445 11.8799 7.50079 11.8163 7.50079 11.75C7.50079 11.6837 7.47445 11.6201 7.42757 11.5732C7.38069 11.5263 7.3171 11.5 7.25079 11.5Z" fill="#0F0B18"/>
<path d="M7.25079 12.5H4.75079C4.68449 12.5 4.6209 12.5263 4.57402 12.5732C4.52713 12.6201 4.50079 12.6837 4.50079 12.75C4.50079 12.8163 4.52713 12.8799 4.57402 12.9268C4.6209 12.9737 4.68449 13 4.75079 13H7.25079C7.3171 13 7.38069 12.9737 7.42757 12.9268C7.47445 12.8799 7.50079 12.8163 7.50079 12.75C7.50079 12.6837 7.47445 12.6201 7.42757 12.5732C7.38069 12.5263 7.3171 12.5 7.25079 12.5Z" fill="#0F0B18"/>
<path d="M6.00079 13.5H4.75079C4.68449 13.5 4.6209 13.5263 4.57402 13.5732C4.52713 13.6201 4.50079 13.6837 4.50079 13.75C4.50079 13.8163 4.52713 13.8799 4.57402 13.9268C4.6209 13.9737 4.68449 14 4.75079 14H6.00079C6.0671 14 6.13069 13.9737 6.17757 13.9268C6.22445 13.8799 6.25079 13.8163 6.25079 13.75C6.25079 13.6837 6.22445 13.6201 6.17757 13.5732C6.13069 13.5263 6.0671 13.5 6.00079 13.5Z" fill="#0F0B18"/>
<path d="M12.5008 8.00853V1.75C12.5004 1.41859 12.3686 1.10087 12.1343 0.866528C11.8999 0.632188 11.5822 0.500372 11.2508 0.5H0.250793C0.184489 0.5 0.120901 0.526339 0.0740168 0.573223C0.0271327 0.620107 0.000793457 0.683696 0.000793457 0.75L0.000793457 15.25C0.000793457 15.3163 0.0271327 15.3799 0.0740168 15.4268C0.120901 15.4737 0.184489 15.5 0.250793 15.5H12.2508C13.2232 15.4993 14.1573 15.1208 14.8561 14.4445C15.5548 13.7682 15.9635 12.847 15.9959 11.8751C16.0283 10.9032 15.682 9.95672 15.0299 9.23533C14.3778 8.51395 13.471 8.07408 12.5008 8.00853ZM14.5489 13.6946C14.5018 13.6485 14.4385 13.6229 14.3727 13.6233C14.3069 13.6237 14.2439 13.65 14.1973 13.6965C14.1508 13.7431 14.1245 13.8061 14.1241 13.8719C14.1237 13.9377 14.1493 14.001 14.1954 14.0481L14.3641 14.2168C13.8413 14.6668 13.1885 14.9379 12.5008 14.9906V14.75C12.5008 14.6837 12.4745 14.6201 12.4276 14.5732C12.3807 14.5263 12.3171 14.5 12.2508 14.5C12.1845 14.5 12.1209 14.5263 12.074 14.5732C12.0271 14.6201 12.0008 14.6837 12.0008 14.75V14.9906C11.3131 14.9379 10.6602 14.6669 10.1374 14.2171L10.3062 14.0483C10.3522 14.0013 10.3778 13.938 10.3774 13.8722C10.3771 13.8063 10.3507 13.7433 10.3042 13.6968C10.2577 13.6502 10.1946 13.6239 10.1288 13.6236C10.063 13.6232 9.9997 13.6488 9.95264 13.6948L9.78389 13.8636C9.33401 13.3407 9.06297 12.6878 9.01032 12H9.25079C9.3171 12 9.38069 11.9737 9.42757 11.9268C9.47445 11.8799 9.50079 11.8163 9.50079 11.75C9.50079 11.6837 9.47445 11.6201 9.42757 11.5732C9.38069 11.5263 9.3171 11.5 9.25079 11.5H9.01032C9.06301 10.8123 9.33403 10.1594 9.78386 9.63663L9.95261 9.80538C9.99967 9.85139 10.063 9.877 10.1288 9.87663C10.1946 9.87626 10.2576 9.84995 10.3042 9.80341C10.3507 9.75687 10.377 9.69385 10.3774 9.62803C10.3778 9.56221 10.3522 9.4989 10.3061 9.45184L10.1374 9.28309C10.6602 8.83325 11.3131 8.56221 12.0008 8.50953V8.75C12.0008 8.8163 12.0271 8.87989 12.074 8.92678C12.1209 8.97366 12.1845 9 12.2508 9C12.3171 9 12.3807 8.97366 12.4276 8.92678C12.4745 8.87989 12.5008 8.8163 12.5008 8.75V8.50953C13.1885 8.56221 13.8413 8.83323 14.3642 9.28306L14.1954 9.45181C14.1718 9.47493 14.153 9.50251 14.14 9.53295C14.1271 9.56339 14.1204 9.59609 14.1202 9.62916C14.12 9.66222 14.1264 9.695 14.139 9.72558C14.1515 9.75617 14.17 9.78395 14.1934 9.80733C14.2168 9.83071 14.2446 9.84923 14.2752 9.86179C14.3058 9.87436 14.3385 9.88074 14.3716 9.88055C14.4047 9.88037 14.4374 9.87362 14.4678 9.86071C14.4983 9.84781 14.5258 9.82899 14.5489 9.80534L14.7177 9.63659C15.223 10.2248 15.5008 10.9746 15.5008 11.75C15.5008 12.5254 15.223 13.2751 14.7177 13.8633L14.5489 13.6946ZM12.0008 1.75V2.5H11.0008V1.5C11.001 1.32439 10.9546 1.15186 10.8664 1H11.2508C11.4496 1.00023 11.6403 1.07932 11.7809 1.21993C11.9215 1.36053 12.0006 1.55116 12.0008 1.75ZM0.500793 15V1H10.0008C10.1334 1.00016 10.2604 1.05289 10.3542 1.14662C10.4479 1.24035 10.5006 1.36744 10.5008 1.5V2.75C10.5008 2.8163 10.5271 2.87989 10.574 2.92678C10.6209 2.97366 10.6845 3 10.7508 3H12.0008V8.00853C11.198 8.06203 10.4337 8.37238 9.82079 8.89371C9.20793 9.41504 8.77903 10.1197 8.59749 10.9036C8.41595 11.6874 8.49138 12.5089 8.81265 13.2466C9.13392 13.9842 9.68398 14.599 10.3815 15H0.500793Z" fill="#0F0B18"/>
<path d="M14.2508 11.5H12.5008V10.25C12.5008 10.1837 12.4745 10.1201 12.4276 10.0732C12.3807 10.0263 12.3171 10 12.2508 10C12.1845 10 12.1209 10.0263 12.074 10.0732C12.0271 10.1201 12.0008 10.1837 12.0008 10.25V11.75C12.0008 11.8163 12.0271 11.8799 12.074 11.9268C12.1209 11.9737 12.1845 12 12.2508 12H14.2508C14.3171 12 14.3807 11.9737 14.4276 11.9268C14.4745 11.8799 14.5008 11.8163 14.5008 11.75C14.5008 11.6837 14.4745 11.6201 14.4276 11.5732C14.3807 11.5263 14.3171 11.5 14.2508 11.5Z" fill="#0F0B18"/>
</g>
<defs>
<clipPath id="clip0_25134_6423">
<rect width="16" height="16" fill="white" transform="translate(0.000793457)"/>
</clipPath>
</defs>
</svg>
