<svg width="16" height="17" viewBox="0 0 16 17" fill="none" xmlns="http://www.w3.org/2000/svg">
<g clip-path="url(#clip0_24839_3379)">
<path d="M10.8505 9.91291L8.61965 8.23979V4.8316C8.61965 4.48891 8.34265 4.21191 7.99997 4.21191C7.65728 4.21191 7.38028 4.48891 7.38028 4.8316V8.54966C7.38028 8.74485 7.472 8.92891 7.62815 9.04541L10.1068 10.9044C10.2184 10.9881 10.3485 11.0284 10.478 11.0284C10.667 11.0284 10.8529 10.9435 10.9744 10.7799C11.1802 10.5066 11.1244 10.118 10.8505 9.91291Z" fill="#ED1E79"/>
<path d="M8 0.5C3.58853 0.5 0 4.08853 0 8.5C0 12.9115 3.58853 16.5 8 16.5C12.4115 16.5 16 12.9115 16 8.5C16 4.08853 12.4115 0.5 8 0.5ZM8 15.2607C4.27266 15.2607 1.23934 12.2273 1.23934 8.5C1.23934 4.77266 4.27266 1.73934 8 1.73934C11.728 1.73934 14.7607 4.77266 14.7607 8.5C14.7607 12.2273 11.7273 15.2607 8 15.2607Z" fill="#ED1E79"/>
</g>
<defs>
<clipPath id="clip0_24839_3379">
<rect width="16" height="16" fill="white" transform="translate(0 0.5)"/>
</clipPath>
</defs>
</svg>
