<svg width="20" height="20" viewBox="0 0 20 20" fill="none" xmlns="http://www.w3.org/2000/svg">
<path d="M13.3341 11.2437C13.3122 11.1374 13.3497 11.028 13.4279 10.9562L15.3591 9.15303C15.6279 8.90303 15.7247 8.52803 15.6122 8.17803C15.4997 7.82803 15.1997 7.58115 14.8341 7.5374L12.2122 7.21553C12.106 7.20303 12.0122 7.13428 11.9654 7.0374L10.8497 4.64365C10.6935 4.30928 10.3685 4.10303 9.99973 4.10303C9.63098 4.10303 9.30598 4.30928 9.14973 4.64365L8.03411 7.0374C7.98723 7.13428 7.89661 7.20303 7.79036 7.21553L5.16849 7.5374C4.80286 7.58115 4.50598 7.82803 4.39036 8.17803C4.27786 8.52803 4.37161 8.90303 4.64348 9.15303L6.57786 10.9562C6.65598 11.0312 6.69348 11.1374 6.67161 11.2437L6.16848 13.8374C6.09661 14.1999 6.24036 14.5593 6.53723 14.7749C6.70286 14.8937 6.89349 14.9562 7.08723 14.9562C7.24348 14.9562 7.39973 14.9155 7.54348 14.8374L9.85599 13.5562C9.94974 13.503 10.0654 13.503 10.1591 13.5562L12.4716 14.8374C12.7935 15.0155 13.1779 14.9937 13.4779 14.7749C13.7747 14.5593 13.9185 14.1999 13.8466 13.8374L13.3435 11.2437H13.3341ZM13.1029 14.2687C13.0654 14.2968 12.931 14.378 12.7685 14.2874L10.456 13.0062C10.1716 12.8499 9.83098 12.8499 9.54661 13.0062L7.23411 14.2874C7.07161 14.378 6.93723 14.2937 6.89973 14.2655C6.86223 14.2374 6.74036 14.1343 6.77786 13.953L7.28098 11.3593C7.34348 11.0405 7.23723 10.7155 6.99973 10.4937L5.06536 8.69053C4.93098 8.56553 4.96536 8.40928 4.98098 8.36553C4.99661 8.32178 5.05598 8.1749 5.24036 8.15303L7.86223 7.83115C8.18411 7.79053 8.45911 7.59053 8.59661 7.29678L9.71223 4.90303C9.79036 4.73428 9.94973 4.72178 9.99661 4.72178C10.0435 4.72178 10.2029 4.73428 10.281 4.90303L11.3966 7.2999C11.5341 7.59365 11.8091 7.79365 12.131 7.83428L14.7529 8.15615C14.9372 8.17803 14.9966 8.3249 15.0122 8.36865C15.0279 8.4124 15.0622 8.56865 14.9279 8.69365L12.9966 10.4968C12.7591 10.7187 12.6529 11.0405 12.7154 11.3624L13.2185 13.9562C13.2529 14.1374 13.1341 14.2405 13.0966 14.2687H13.1029Z" fill="#0F0B18"/>
<path d="M19.1508 8.95605L17.2352 8.3123C17.182 8.29355 17.1414 8.2498 17.1258 8.19355L16.657 6.22792C16.5852 5.9248 16.3508 5.6998 16.0477 5.6373C15.7445 5.5748 15.4383 5.69042 15.2539 5.94042L14.7477 6.62167C14.6445 6.75917 14.6727 6.95605 14.8133 7.05917C14.9508 7.1623 15.1477 7.13417 15.2508 6.99355L15.757 6.3123C15.8133 6.2373 15.8914 6.24355 15.9227 6.2498C15.9539 6.25605 16.0289 6.28105 16.0508 6.3748L16.5195 8.34042C16.582 8.60605 16.7758 8.81855 17.0352 8.90605L18.9508 9.5498C19.0414 9.58105 19.0602 9.65605 19.0633 9.6873C19.0664 9.71855 19.0633 9.79667 18.9852 9.84667L17.2602 10.8998C17.0258 11.0435 16.8852 11.2904 16.882 11.5654L16.8602 13.5842C16.8602 13.6779 16.7914 13.7217 16.7633 13.7342C16.7352 13.7467 16.6602 13.7717 16.5883 13.7092L15.0539 12.3935C14.8445 12.2154 14.5633 12.156 14.2852 12.2467L14.3758 12.5467L14.4914 12.8373C14.5445 12.8217 14.6039 12.831 14.6477 12.8685L16.182 14.1842C16.3289 14.3092 16.5102 14.3748 16.6945 14.3748C16.8039 14.3748 16.9164 14.3498 17.0227 14.3029C17.3039 14.1748 17.482 13.9029 17.4852 13.5904L17.507 11.5717C17.507 11.5154 17.5383 11.4623 17.5852 11.431L19.3102 10.3779C19.5758 10.2154 19.7195 9.9248 19.6852 9.61542C19.6508 9.30605 19.4445 9.05292 19.1508 8.95605Z" fill="#0F0B18"/>
<path d="M5.69682 12.2404C5.43745 12.1592 5.15307 12.2154 4.94682 12.3935L3.41245 13.7092C3.34057 13.7717 3.26557 13.7467 3.23745 13.7342C3.20932 13.7217 3.14057 13.681 3.14057 13.5842L3.1187 11.5654C3.1187 11.2904 2.97495 11.0435 2.74057 10.8998L1.01557 9.84667C0.934324 9.79667 0.934324 9.71855 0.937449 9.6873C0.940574 9.65605 0.959324 9.57792 1.04995 9.5498L2.96557 8.90605C3.22495 8.81855 3.4187 8.60605 3.4812 8.34042L3.94995 6.3748C3.97182 6.28105 4.04682 6.25605 4.07807 6.2498C4.10932 6.24355 4.18745 6.2373 4.2437 6.3123L4.74995 6.99355C4.85307 7.13105 5.04682 7.1623 5.18745 7.05917C5.32495 6.95605 5.3562 6.75917 5.25307 6.62167L4.74682 5.94042C4.56245 5.69042 4.25932 5.5748 3.95307 5.6373C3.64995 5.6998 3.41557 5.9248 3.3437 6.22792L2.87495 8.19355C2.86245 8.2498 2.82182 8.29355 2.76557 8.3123L0.849949 8.95605C0.556199 9.05605 0.349949 9.30917 0.315574 9.61542C0.281199 9.9248 0.424949 10.2154 0.690574 10.3779L2.41557 11.431C2.46557 11.4623 2.4937 11.5123 2.4937 11.5717L2.51557 13.5904C2.5187 13.8998 2.69682 14.1748 2.97807 14.3029C3.08432 14.3498 3.19682 14.3748 3.3062 14.3748C3.49057 14.3748 3.67182 14.3092 3.8187 14.1842L5.35307 12.8685C5.39682 12.831 5.4562 12.8185 5.5312 12.8435C5.69682 12.8935 5.85932 12.7998 5.91245 12.6342C5.96245 12.4685 5.86245 12.2904 5.69682 12.2404Z" fill="#0F0B18"/>
</svg>
