<svg width="16" height="16" viewBox="0 0 16 16" fill="none" xmlns="http://www.w3.org/2000/svg">
<g clip-path="url(#clip0_24871_3178)">
<path d="M13.7768 9.84139L11.7367 11.3481C11.5378 11.4902 11.3197 11.5983 11.0914 11.6713C11.2127 11.3205 11.1921 10.9444 11.0315 10.6079C10.8656 10.26 10.5728 10.0012 10.2061 9.87896L6.13378 8.53161C4.90816 8.12299 3.25944 8.29971 2.15875 9.28071H0.46875C0.209875 9.28071 0 9.49058 0 9.74946V14.437C0 14.6958 0.209875 14.9057 0.46875 14.9057H2.34375C2.60262 14.9057 2.8125 14.6958 2.8125 14.437V14.0867L6.48906 14.9221C7.15953 15.0756 7.84669 15.1562 8.48256 15.1562C8.51162 15.1562 8.54059 15.1561 8.56944 15.1557C10.3486 15.1349 12.0669 14.5683 13.5386 13.5171L15.4115 12.13C16.0672 11.6616 16.1957 10.7365 15.6923 10.1072C15.2258 9.52414 14.3844 9.40739 13.7768 9.84139ZM1.875 13.9682H0.9375V10.2182H1.875V13.9682ZM14.8666 11.3671L12.9937 12.7542C11.6787 13.6935 10.145 14.1997 8.55847 14.2183C7.97172 14.2251 7.32828 14.1525 6.69753 14.0081L2.8125 13.1253V9.95402C3.8225 9.07736 5.21684 9.21414 5.83828 9.42133L9.91059 10.7687C10.0325 10.8093 10.1301 10.8956 10.1854 11.0115C10.2407 11.1275 10.2463 11.2576 10.2012 11.3779C10.1123 11.6151 9.85431 11.7381 9.61413 11.658C9.61366 11.6578 9.61322 11.6578 9.61275 11.6576L6.74066 10.7106C6.49478 10.6295 6.22978 10.7631 6.14869 11.009C6.06763 11.2548 6.20122 11.5199 6.44706 11.6009L9.33681 12.5538C10.3294 12.8846 11.4303 12.7191 12.2816 12.111L14.3217 10.6043C14.5243 10.4596 14.8047 10.4985 14.9602 10.6929C15.1277 10.9022 15.0865 11.21 14.8666 11.3671Z" fill="#0F0B18"/>
<path d="M12.6841 4.84001C12.4339 4.70648 12.1452 4.65292 11.866 4.60111C11.6568 4.56229 11.4405 4.5222 11.3182 4.45692C11.2559 4.42361 11.2559 4.41498 11.2559 4.35886C11.2559 4.32564 11.3099 4.26501 11.4133 4.21332C11.6692 4.08539 12.0302 4.09586 12.218 4.2367C12.4251 4.39204 12.7189 4.35004 12.8742 4.14295C13.0295 3.93586 12.9876 3.64204 12.7805 3.4867C12.6263 3.37107 12.4444 3.28845 12.2492 3.23929V3.12451C12.2492 2.86564 12.0393 2.65576 11.7805 2.65576C11.5216 2.65576 11.3117 2.86564 11.3117 3.12451V3.25336C11.2025 3.28364 11.0958 3.32392 10.994 3.37482C10.5646 3.58951 10.3184 3.9482 10.3184 4.35889C10.3184 4.76911 10.5115 5.08901 10.8768 5.28401C11.127 5.41754 11.4157 5.47111 11.695 5.52292C11.9041 5.56173 12.1204 5.60182 12.2427 5.66711C12.305 5.70039 12.305 5.70904 12.305 5.76514C12.305 5.79726 12.2496 5.85911 12.1468 5.91051C11.8911 6.03839 11.5305 6.02795 11.343 5.88732C11.1359 5.73198 10.842 5.77401 10.6867 5.98107C10.5314 6.1882 10.5734 6.48201 10.7805 6.63732C10.9346 6.75295 11.1166 6.83551 11.3117 6.88464V6.99951C11.3117 7.25839 11.5216 7.46826 11.7805 7.46826C12.0393 7.46826 12.2492 7.25839 12.2492 6.99951V6.86998C12.3581 6.83973 12.4645 6.79979 12.5661 6.74901C12.996 6.53404 13.2425 6.17545 13.2425 5.76511C13.2425 5.35489 13.0494 5.03501 12.6841 4.84001Z" fill="#0F0B18"/>
<path d="M11.7812 9.28076C14.1075 9.28076 16 7.38823 16 5.06201C16 2.73579 14.1075 0.843262 11.7812 0.843262C9.45503 0.843262 7.5625 2.73579 7.5625 5.06201C7.5625 7.38823 9.45503 9.28076 11.7812 9.28076ZM11.7812 1.78076C13.5905 1.78076 15.0625 3.25273 15.0625 5.06201C15.0625 6.87129 13.5905 8.34326 11.7812 8.34326C9.97197 8.34326 8.5 6.87129 8.5 5.06201C8.5 3.25273 9.97197 1.78076 11.7812 1.78076Z" fill="#0F0B18"/>
</g>
<defs>
<clipPath id="clip0_24871_3178">
<rect width="16" height="16" fill="white"/>
</clipPath>
</defs>
</svg>
