<svg width="24" height="24" viewBox="0 0 24 24" fill="none" xmlns="http://www.w3.org/2000/svg">
<g clip-path="url(#clip0_24860_2008)">
<path d="M20.6653 14.7626L17.6051 17.0227C17.3066 17.2358 16.9795 17.3979 16.6372 17.5075C16.819 16.9812 16.7881 16.417 16.5473 15.9123C16.2983 15.3904 15.8592 15.0023 15.3091 14.8189L9.20067 12.7979C7.36223 12.185 4.88916 12.45 3.23813 13.9215H0.703125C0.314812 13.9215 0 14.2364 0 14.6247V21.6559C0 22.0442 0.314812 22.359 0.703125 22.359H3.51562C3.90394 22.359 4.21875 22.0442 4.21875 21.6559V21.1305L9.73359 22.3837C10.7393 22.614 11.77 22.7348 12.7238 22.7348C12.7674 22.7348 12.8109 22.7346 12.8542 22.734C15.5228 22.7028 18.1003 21.8529 20.3079 20.2762L23.1173 18.1954C24.1007 17.493 24.2935 16.1052 23.5384 15.1613C22.8387 14.2867 21.5767 14.1116 20.6653 14.7626ZM2.8125 20.9528H1.40625V15.3278H2.8125V20.9528ZM22.2999 17.0511L19.4905 19.1318C17.518 20.5407 15.2175 21.3 12.8377 21.3279C11.9576 21.3382 10.9924 21.2293 10.0463 21.0127L4.21875 19.6884V14.9315C5.73375 13.6165 7.82527 13.8217 8.75742 14.1325L14.8659 16.1535C15.0487 16.2144 15.1951 16.3438 15.2781 16.5178C15.3611 16.6917 15.3695 16.8869 15.3018 17.0673C15.1684 17.4231 14.7815 17.6076 14.4212 17.4875C14.4205 17.4872 14.4198 17.4871 14.4191 17.4869L10.111 16.0664C9.74217 15.9448 9.34467 16.1452 9.22303 16.5139C9.10144 16.8827 9.30183 17.2803 9.67059 17.4019L14.0052 18.8311C15.4941 19.3275 17.1454 19.0791 18.4224 18.1669L21.4826 15.9069C21.7864 15.6899 22.207 15.7483 22.4403 16.0398C22.6915 16.3538 22.6297 16.8155 22.2999 17.0511Z" fill="#ED1E79"/>
<path d="M19.0271 7.26026C18.6518 7.05997 18.2187 6.97962 17.7999 6.9019C17.4862 6.84368 17.1618 6.78354 16.9783 6.68562C16.8848 6.63565 16.8848 6.62272 16.8848 6.53853C16.8848 6.4887 16.9659 6.39776 17.1209 6.32023C17.5048 6.12832 18.0462 6.14403 18.3279 6.35529C18.6386 6.58831 19.0793 6.52531 19.3123 6.21467C19.5453 5.90403 19.4823 5.46331 19.1717 5.23029C18.9404 5.05686 18.6675 4.93292 18.3748 4.85918V4.68701C18.3748 4.2987 18.06 3.98389 17.6717 3.98389C17.2833 3.98389 16.9685 4.2987 16.9685 4.68701V4.88028C16.8047 4.9257 16.6447 4.98612 16.492 5.06248C15.8479 5.38451 15.4785 5.92254 15.4785 6.53857C15.4785 7.1539 15.7682 7.63376 16.3162 7.92626C16.6915 8.12656 17.1246 8.2069 17.5434 8.28462C17.8571 8.34284 18.1815 8.40298 18.365 8.5009C18.4585 8.55082 18.4585 8.56381 18.4585 8.64795C18.4585 8.69614 18.3753 8.7889 18.2212 8.86601C17.8376 9.05782 17.2967 9.04217 17.0154 8.83123C16.7048 8.59822 16.264 8.66126 16.031 8.97186C15.798 9.28254 15.861 9.72326 16.1717 9.95623C16.4029 10.1297 16.6758 10.2535 16.9685 10.3272V10.4995C16.9685 10.8878 17.2833 11.2026 17.6717 11.2026C18.06 11.2026 18.3748 10.8878 18.3748 10.4995V10.3052C18.5381 10.2598 18.6978 10.1999 18.8501 10.1238C19.495 9.80131 19.8648 9.26342 19.8648 8.6479C19.8648 8.03257 19.5751 7.55276 19.0271 7.26026Z" fill="#ED1E79"/>
<path d="M17.6719 13.9214C21.1612 13.9214 24 11.0826 24 7.59326C24 4.10393 21.1612 1.26514 17.6719 1.26514C14.1825 1.26514 11.3438 4.10393 11.3438 7.59326C11.3438 11.0826 14.1825 13.9214 17.6719 13.9214ZM17.6719 2.67139C20.3858 2.67139 22.5938 4.87934 22.5938 7.59326C22.5938 10.3072 20.3858 12.5151 17.6719 12.5151C14.958 12.5151 12.75 10.3072 12.75 7.59326C12.75 4.87934 14.958 2.67139 17.6719 2.67139Z" fill="#ED1E79"/>
</g>
<defs>
<clipPath id="clip0_24860_2008">
<rect width="24" height="24" fill="white"/>
</clipPath>
</defs>
</svg>
