<svg width="24" height="24" viewBox="0 0 24 24" fill="none" xmlns="http://www.w3.org/2000/svg">
<path d="M10.5371 14.2725L10.5184 14.2875C10.5184 14.9325 10.4546 15.5812 10.2709 16.2037C10.0913 16.8371 9.78339 17.4337 9.62251 18.075C9.31501 19.3275 9.66751 20.6621 10.2788 21.765C8.95126 21.315 7.68376 20.6658 6.73126 19.6162C5.89839 18.6975 5.31001 17.5987 5.04376 16.3878C4.69464 14.7978 4.93501 13.2262 5.61376 11.7641C5.93626 11.0737 6.30001 10.3987 6.53626 9.67159C6.76876 8.95159 6.91126 8.20159 7.04289 7.45909C7.52664 8.19034 7.88251 8.99696 8.09289 9.84784C9.73914 7.64284 10.6391 4.96909 10.6616 2.22034C13.1929 3.66746 14.9516 6.16159 15.4766 9.03034C16.152 8.13034 16.2495 6.98659 16.1629 5.89534C16.4066 6.18446 16.6508 6.47659 16.8679 6.78409C18.5783 9.21034 19.5158 12.2741 18.9533 15.2366C18.672 16.7178 18.0079 18.1166 17.0295 19.26C16.0808 20.37 14.8245 21.1728 13.512 21.7803C13.827 21.165 14.0933 20.5237 14.3029 19.8675C15.1616 17.1787 14.1866 14.0778 12.0866 12.2362C12.3758 13.02 12.4958 13.8675 12.3908 14.7C12.2783 15.5775 11.8808 16.3983 11.5241 17.1971C11.3321 16.1508 11.2009 15.1387 10.5371 14.2725Z" fill="#ED1E79"/>
</svg>
