<svg width="24" height="31" viewBox="0 0 24 31" fill="none" xmlns="http://www.w3.org/2000/svg">
<path d="M7.28523 14.4794L13.5922 18.1812L6.30693 31L4.71459 26.4045L0 27.2982L7.28523 14.4794Z" fill="#212529"/>
<path d="M7.28648 14.4794L4.36719 19.6143C4.96041 20.7936 6.44868 21.1162 7.57789 21.0686C7.95408 21.053 8.33058 21.0904 8.6967 21.1796C9.46685 21.4969 10.1902 22.2902 11.0956 22.5758L13.5934 18.1812L7.28648 14.4794Z" fill="#111315"/>
<path d="M16.7132 14.4794L10.4062 18.1812L17.6915 31L19.2838 26.4045L23.9984 27.2982L16.7132 14.4794Z" fill="#212529"/>
<path d="M16.7132 14.4794L10.4062 18.1812L12.904 22.5758C13.8095 22.2902 14.5328 21.5181 15.303 21.1796C15.6691 21.0907 16.0456 21.0533 16.4218 21.0686C17.5458 21.1162 19.0236 20.7883 19.6325 19.6143L16.7132 14.4794Z" fill="#111315"/>
<path d="M11.7823 17.1183L5.39735 28.3718L4.71566 26.4046L2.69141 26.7906L9.0868 15.5371L11.7823 17.1183Z" fill="#DD051D"/>
<path d="M21.3129 26.7906L19.2835 26.4046L18.6018 28.3771L12.2168 17.1183L14.9123 15.5371L21.3129 26.7906Z" fill="#DD051D"/>
<path d="M14.9123 15.5371L12.2168 17.1236L14.7094 21.5129C15.6357 20.7778 16.8533 21.2538 17.9617 20.91L14.9123 15.5371Z" fill="#A60416"/>
<path d="M9.0865 15.5371L6.03711 20.9047C7.14551 21.2485 8.36318 20.7725 9.28945 21.5076L11.782 17.1183L9.0865 15.5371Z" fill="#A60416"/>
<path d="M21.652 10.841C21.652 9.72518 22.469 8.49301 22.1724 7.48823C21.8758 6.48345 20.4291 5.94405 19.8047 5.07677C19.1802 4.20949 19.1282 2.70761 18.2436 2.06772C17.3589 1.42784 15.9799 1.84562 14.9548 1.53889C13.9297 1.23217 13.0971 0 11.9991 0C10.9011 0 10.006 1.18458 9.01734 1.51245C8.02863 1.84033 6.58199 1.43842 5.72857 2.04128C4.87516 2.64415 4.81792 4.1566 4.16745 5.05033C3.51699 5.94405 2.16401 6.41999 1.83097 7.46179C1.49794 8.50358 2.32533 9.69874 2.32533 10.8146C2.32533 11.9304 1.50834 13.1626 1.83097 14.1674C2.15361 15.1721 3.56902 15.738 4.19347 16.6053C4.81792 17.4725 4.86996 18.9744 5.75459 19.6143C6.63923 20.2542 8.01822 19.8364 9.04336 20.1431C10.0685 20.4499 10.9011 21.682 11.9991 21.682C13.0971 21.682 13.9921 20.4974 14.9808 20.1696C15.9695 19.8417 17.4162 20.2436 18.2696 19.6407C19.123 19.0379 19.1802 17.5254 19.8307 16.6317C20.4812 15.738 21.8341 15.262 22.1672 14.2202C22.5002 13.1784 21.652 11.9568 21.652 10.841Z" fill="#FCCD1D"/>
<path d="M12.0005 18.509C16.1677 18.509 19.5459 15.0759 19.5459 10.841C19.5459 6.60607 16.1677 3.17297 12.0005 3.17297C7.83328 3.17297 4.45508 6.60607 4.45508 10.841C4.45508 15.0759 7.83328 18.509 12.0005 18.509Z" fill="#F9A215"/>
<path d="M12.7123 6.87478L13.5032 8.26561C13.5606 8.36953 13.6398 8.45939 13.7351 8.52884C13.8304 8.59828 13.9396 8.64562 14.0548 8.66752L15.642 8.9901C15.7839 9.01504 15.9166 9.07865 16.0258 9.17416C16.1349 9.26966 16.2166 9.39348 16.262 9.53243C16.3074 9.67137 16.3148 9.82022 16.2835 9.96313C16.2522 10.106 16.1834 10.2376 16.0843 10.3439L14.9915 11.5179C14.912 11.6031 14.8521 11.7051 14.8161 11.8167C14.7801 11.9283 14.7689 12.0466 14.7834 12.1631L14.9707 13.7496C14.9848 13.8951 14.9609 14.0418 14.9013 14.175C14.8418 14.3081 14.7486 14.4228 14.6314 14.5076C14.5142 14.5924 14.377 14.6443 14.2337 14.6579C14.0904 14.6715 13.9461 14.6464 13.8155 14.5851L12.3532 13.9135C12.2453 13.8639 12.1282 13.8382 12.0098 13.8382C11.8913 13.8382 11.7742 13.8639 11.6663 13.9135L10.2041 14.5851C10.073 14.649 9.92751 14.6761 9.78266 14.6638C9.6378 14.6514 9.49881 14.6 9.38003 14.5149C9.26124 14.4297 9.16696 14.3139 9.10691 14.1794C9.04687 14.0449 9.02322 13.8965 9.03843 13.7496L9.22577 12.1631C9.24022 12.0466 9.22904 11.9283 9.19305 11.8167C9.15705 11.7051 9.09713 11.6031 9.01762 11.5179L7.92483 10.3439C7.82586 10.2383 7.75679 10.1076 7.72494 9.96539C7.69309 9.82321 7.69964 9.67494 7.74389 9.53623C7.78814 9.39753 7.86845 9.27356 7.97633 9.17742C8.08421 9.08129 8.21565 9.01657 8.35674 8.9901L9.91786 8.67809C10.0331 8.6562 10.1423 8.60886 10.2376 8.53941C10.3329 8.46997 10.4121 8.38011 10.4695 8.27618L11.2864 6.87478C11.3595 6.74868 11.4638 6.64414 11.5888 6.57152C11.7138 6.49889 11.8553 6.46069 11.9994 6.46069C12.1434 6.46069 12.2849 6.49889 12.4099 6.57152C12.535 6.64414 12.6392 6.74868 12.7123 6.87478Z" fill="#FCCD1D"/>
</svg>
