<svg width="16" height="16" viewBox="0 0 16 16" fill="none" xmlns="http://www.w3.org/2000/svg">
<path d="M5 2.33333L3 1L1 2.33333V12.3333C1 13.4379 1.89543 14.3333 3 14.3333H12.3333C13.4379 14.3333 14.3333 13.4379 14.3333 12.3333V10.3333H13V2.33333L11 1L9 2.33333L7 1L5 2.33333ZM11.6667 10.3333H3.66667V12.3333C3.66667 12.7015 3.36819 13 3 13C2.63181 13 2.33333 12.7015 2.33333 12.3333V3.04691L3 2.60247L5 3.9358L7 2.60247L9 3.9358L11 2.60247L11.6667 3.04691V10.3333ZM12.3333 13H4.88619C4.9599 12.7915 5 12.5671 5 12.3333V11.6667H13V12.3333C13 12.7015 12.7015 13 12.3333 13Z" fill="#0F0B18"/>
</svg>
