<svg width="50" height="74" viewBox="0 0 50 74" fill="none" xmlns="http://www.w3.org/2000/svg">
<path d="M43.0299 0.847164C42.6767 0.888924 42.3513 1.1186 42.1747 1.47356C40.2596 5.32589 32.7853 19.6703 27.8768 32.762C27.161 34.6725 26.4545 36.5725 26.0269 37.7001C25.9897 37.794 25.9618 37.888 25.9339 37.9819C27.505 39.3391 29.0947 40.6441 30.7587 41.8447L43.2717 1.19168C43.3274 1.0142 43.1973 0.815844 43.0299 0.836723V0.847164ZM30.4705 37.1676C30.1173 37.7836 29.3922 37.9611 28.853 37.5748C28.3045 37.1781 28.1464 36.3637 28.4904 35.7582C28.8437 35.1423 29.5688 34.9648 30.108 35.3511C30.6565 35.7478 30.8145 36.5621 30.4612 37.1676H30.4705ZM26.8357 45.1124L21.4902 58.6216C22.2339 57.1183 23.4239 55.8759 25.1065 55.1451C26.4545 54.5396 27.7839 54.4874 28.9366 54.9363C28.7507 53.4956 28.8716 51.9923 29.355 50.5725L30.2753 47.8268C29.7175 47.357 29.1597 46.8976 28.5834 46.4591C27.9977 46.0207 27.412 45.5718 26.8357 45.102V45.1124Z" fill="#38232D"/>
<path d="M33.3984 38.3786C41.8117 27.8761 47.5196 17.6554 49.788 14.1476C50.0018 13.8135 50.0575 13.3855 49.9367 13.0097C49.8809 12.8322 49.6764 12.78 49.5463 12.9157L37.2657 25.8612L33.3984 38.3891V38.3786Z" fill="#38232D"/>
<path d="M26.7794 42.7739L28.304 42.7112L27.8299 41.4375C27.4766 40.5084 26.5563 41.3227 26.9096 40.3936C26.9839 40.1848 26.5284 40.3727 26.6307 40.0804L26.0264 40.0282L25.7661 39.0886C25.6731 38.7545 25.292 38.6501 25.0689 38.9006L20.8297 43.7656C18.7659 46.1251 15.7167 46.9603 12.8906 46.0207C9.33939 44.8305 5.34195 45.8954 2.6367 49.1318C2.24625 49.6224 1.90229 50.1236 1.6048 50.6455C-0.551959 54.4352 -0.0592497 58.82 2.68318 61.5657C2.98996 61.8685 3.30604 62.1399 3.64071 62.38C6.68063 64.562 10.771 63.9773 13.2253 60.8349L26.7608 43.442C26.8538 43.3167 26.891 43.1497 26.8445 42.9931L26.7887 42.7843L26.7794 42.7739ZM12.8813 56.6589C12.5373 57.2645 12.1097 57.9117 11.5798 58.6112C9.95295 60.7096 7.22911 61.0855 5.2118 59.6448C4.98868 59.4882 4.77487 59.3002 4.57964 59.1019C2.75755 57.2749 2.43218 54.3622 3.86382 51.8357C4.05905 51.4912 4.29146 51.1571 4.55175 50.8335C5.95551 49.1526 7.88916 48.3488 9.79491 48.4636C10.6502 48.5158 11.4683 48.8394 12.1562 49.4032C13.876 50.7917 15.0381 52.9006 12.8999 56.6589H12.8813Z" fill="#38232D"/>
<path d="M21.4904 58.6217L20.9512 59.9893C21.0906 59.5195 21.2765 59.0602 21.4904 58.6217Z" fill="#38232D"/>
<path d="M38.9862 70.6066C37.4058 72.277 35.3327 73.3314 33.2132 73.749C32.581 73.8848 31.9395 73.9683 31.2981 73.9892C30.0896 74.0414 28.8717 73.9056 27.7004 73.5611C26.2409 73.1227 24.8743 72.3605 23.7215 71.2226C22.5037 70.0116 21.6113 68.4456 21.0814 66.7439C20.3841 64.5306 20.3098 62.0981 20.9512 59.9892L21.4904 58.6216C22.2341 57.1183 23.4241 55.8759 25.1067 55.1451C26.4547 54.5396 27.7841 54.4874 28.9368 54.9363C30.136 55.4061 31.1494 56.4188 31.828 57.943C32.3951 59.1958 32.5252 60.5634 32.6647 61.9206C32.3114 60.6783 31.986 59.3628 31.2981 58.3189C30.7589 57.5045 30.071 56.7633 29.2343 56.377C29.0763 56.3039 28.8996 56.2413 28.7323 56.1995C26.7429 55.6671 24.521 57.1913 23.5263 59.0705C23.0522 60.0519 22.9035 61.2003 22.9592 62.3069C22.9685 62.5261 22.9871 62.7558 23.015 62.9855C23.266 64.9482 24.1678 66.9318 25.5064 68.1428C26.9474 69.4269 28.8346 69.8863 30.6473 69.7192C30.7403 69.7192 30.824 69.6984 30.9076 69.6879C31.7071 69.5835 32.5066 69.3852 33.2689 69.0824C33.8732 68.8423 34.4496 68.5186 34.9795 68.1219C36.8945 66.6708 38.0194 64.1234 38.1402 61.5552C38.2332 59.9579 37.9171 58.3711 37.3314 56.9303C36.6993 55.333 35.844 53.9028 34.8214 52.5456C33.4827 50.7917 31.9302 49.2466 30.2755 47.8372C29.7177 47.3674 29.1599 46.908 28.5836 46.4695C27.9979 46.0311 27.4122 45.5822 26.8358 45.1124C25.9062 44.3711 25.0044 43.5881 24.1399 42.8051C22.764 41.5628 21.3231 40.1534 20.003 38.8484C18.5992 37.4703 17.1118 35.9983 15.9591 34.2966C14.2764 31.885 13.0865 28.8052 13.0679 25.6837C12.9563 18.8038 19.157 13.0827 25.0602 15.0767C26.9753 15.6718 28.7509 17.29 29.2715 19.5033C29.5969 20.8918 29.3644 22.4578 28.5743 23.5853C28.379 23.8567 28.1559 24.0968 27.9142 24.2847C28.314 23.7836 28.5743 23.1781 28.6951 22.5517C29.1971 19.9731 27.6167 17.812 25.46 17.1647C22.9406 16.4026 20.161 17.4153 18.4226 19.5659C16.74 21.5704 16.0613 24.504 16.8236 27.114C17.8276 31.1646 21.2952 33.8373 24.1585 36.4159C24.7534 36.9484 25.3484 37.4808 25.9434 37.9923C27.5145 39.3495 29.1041 40.6545 30.7682 41.8551C30.9076 41.9595 31.0471 42.0535 31.1772 42.1474C34.933 44.9349 38.447 48.3279 40.7153 52.7857C41.394 54.1324 41.961 55.5836 42.3143 57.0869C43.4485 61.8371 42.2399 67.2345 38.9955 70.6066H38.9862Z" fill="#38232D"/>
<path d="M49.6769 12.1431C49.6212 11.9657 49.4166 11.9135 49.2865 12.0492L37.006 24.9947L33.1387 37.5226C41.5519 27.02 47.2599 16.7993 49.5282 13.2915C49.742 12.9575 49.7978 12.5294 49.6769 12.1536V12.1431Z" fill="#ED1E79"/>
<path d="M40.4549 51.9401C38.1866 47.4718 34.6726 44.0893 30.9168 41.3018C30.7774 41.2079 30.6379 41.1035 30.5078 41.0095L43.0207 0.356476C43.0765 0.178997 42.9463 -0.0193614 42.779 0.00151841C42.4257 0.0432781 42.1004 0.272955 41.9237 0.627912C40.0087 4.48024 32.5344 18.8247 27.6259 31.9163C26.9101 33.8268 26.2036 35.7269 25.7759 36.8544C25.7387 36.9484 25.7109 37.0423 25.683 37.1363C25.088 36.6143 24.493 36.0923 23.8981 35.5599C21.0348 32.9812 17.5672 30.3086 16.5632 26.2579C15.8009 23.6479 16.4795 20.7143 18.1622 18.7098C19.9006 16.5697 22.6802 15.5465 25.1995 16.3087C27.3563 16.9664 28.946 19.1274 28.4347 21.6957C28.3138 22.3221 28.0535 22.9276 27.6538 23.4287C27.8955 23.2408 28.1186 23.0006 28.3138 22.7292C29.104 21.6017 29.3364 20.0462 29.0111 18.6472C28.4905 16.4339 26.7242 14.8262 24.7998 14.2207C18.8873 12.2162 12.6959 17.9477 12.8075 24.8276C12.8261 27.9492 14.016 31.0289 15.6986 33.4406C16.8514 35.1423 18.3388 36.6143 19.7426 37.9924C20.635 38.8693 21.574 39.788 22.5129 40.6859L20.57 42.9096C18.5062 45.269 15.4569 46.1042 12.6308 45.1646C9.07962 43.9744 5.08218 45.0393 2.37694 48.2757C1.98649 48.7663 1.64252 49.2675 1.34504 49.7895C-0.811724 53.5791 -0.319015 57.9639 2.42342 60.7096C2.7302 61.0124 3.04627 61.2838 3.38094 61.5239C6.42086 63.7059 10.5113 63.1212 12.9655 59.9788L25.7294 43.5673C26.0083 43.797 26.2872 44.0371 26.5754 44.2667L21.23 57.776C21.0162 58.2145 20.8302 58.6634 20.6908 59.1436C20.0494 61.2525 20.1237 63.685 20.821 65.8982C21.3508 67.6 22.2526 69.1764 23.4611 70.377C24.6139 71.5149 25.9804 72.277 27.44 72.7155C28.602 73.06 29.8291 73.1957 31.0377 73.1435C31.6791 73.1122 32.3206 73.0287 32.9527 72.9034C35.0723 72.4858 37.1454 71.4314 38.7258 69.761C41.9702 66.3889 43.188 60.9915 42.0446 56.2413C41.682 54.738 41.1242 53.2868 40.4456 51.9401H40.4549ZM12.6215 55.8133C12.2776 56.4188 11.8499 57.0661 11.3201 57.7656C9.69319 59.864 6.96935 60.2398 4.95203 58.7991C4.72892 58.6425 4.5151 58.4546 4.31988 58.2562C2.49779 56.4292 2.17241 53.5165 3.60406 50.99C3.79928 50.6455 4.03169 50.3115 4.29199 49.9878C5.69574 48.307 7.62939 47.5031 9.53515 47.618C10.3904 47.6702 11.2085 47.9938 11.8964 48.5575C13.6163 49.9461 14.7783 52.0549 12.6401 55.8133H12.6215ZM28.2395 34.8917C28.5927 34.2757 29.3178 34.0983 29.857 34.4845C30.4055 34.8813 30.5636 35.6956 30.2103 36.3011C29.857 36.917 29.1319 37.0945 28.5927 36.7082C28.0442 36.3115 27.8862 35.4972 28.2302 34.8917H28.2395ZM37.8891 60.6992C37.7683 63.2674 36.6434 65.8147 34.7283 67.2659C34.1984 67.6626 33.6221 67.9758 33.0178 68.2263C32.2555 68.5291 31.456 68.7275 30.6565 68.8319C30.5729 68.8423 30.4799 68.8527 30.3962 68.8632C28.5834 69.0407 26.687 68.5813 25.2553 67.2868C23.9259 66.0757 23.0149 64.0921 22.7639 62.1294C22.736 61.8998 22.7174 61.6805 22.7081 61.4508C22.6616 60.3442 22.8011 59.1958 23.2752 58.2145C24.2699 56.3248 26.4917 54.8006 28.4812 55.3435C28.6578 55.3853 28.8251 55.4479 28.9832 55.521C29.8199 55.9073 30.5078 56.6589 31.047 57.4628C31.7349 58.5068 32.0696 59.8327 32.4135 61.0646C32.2834 59.7074 32.1532 58.3398 31.5769 57.087C30.8982 55.5627 29.8756 54.5501 28.6857 54.0803C28.4998 52.6396 28.6206 51.1362 29.104 49.7164L30.0244 46.9707C31.6791 48.3801 33.2409 49.9252 34.5703 51.6791C35.5929 53.0363 36.4575 54.4665 37.0803 56.0639C37.6753 57.5046 37.9821 59.0914 37.8891 60.6887V60.6992Z" fill="#ED1E79"/>
</svg>
