<svg width="24" height="25" viewBox="0 0 24 25" fill="none" xmlns="http://www.w3.org/2000/svg">
<g clip-path="url(#clip0_24744_304)">
<path d="M22.4042 12.0304C22.3076 11.8328 22.3076 11.6063 22.4042 11.4087L23.2993 9.57756C23.7977 8.55799 23.4028 7.34276 22.4003 6.81087L20.5999 5.85557C20.4056 5.75253 20.2724 5.56916 20.2344 5.35265L19.8823 3.34505C19.6862 2.22727 18.6523 1.47615 17.5288 1.63511L15.5107 1.92057C15.2929 1.95132 15.0775 1.88129 14.9195 1.72843L13.4546 0.311317C12.6389 -0.477772 11.3611 -0.477819 10.5455 0.311317L9.08059 1.72857C8.92253 1.88148 8.70714 1.95137 8.48936 1.92071L6.47126 1.63525C5.34744 1.4762 4.31385 2.22742 4.11778 3.34519L3.76565 5.35269C3.72764 5.56926 3.59447 5.75258 3.40027 5.85566L1.59981 6.81097C0.597345 7.34281 0.202473 8.55813 0.700845 9.5777L1.59592 11.4088C1.69248 11.6064 1.69248 11.833 1.59592 12.0305L0.700798 13.8616C0.202426 14.8812 0.597298 16.0964 1.59976 16.6283L3.40022 17.5836C3.59447 17.6867 3.72764 17.87 3.76565 18.0865L4.11778 20.0941C4.29628 21.1117 5.1688 21.8253 6.17159 21.8252C6.27036 21.8252 6.37058 21.8183 6.47131 21.804L8.48941 21.5186C8.70705 21.4877 8.92258 21.5578 9.08064 21.7107L10.5455 23.1278C10.9534 23.5224 11.4766 23.7197 12 23.7196C12.5233 23.7196 13.0469 23.5223 13.4546 23.1278L14.9195 21.7107C15.0776 21.5578 15.293 21.488 15.5107 21.5186L17.5288 21.804C18.6528 21.963 19.6862 21.2119 19.8823 20.0941L20.2345 18.0866C20.2725 17.87 20.4057 17.6867 20.5999 17.5836L22.4003 16.6283C23.4028 16.0965 23.7977 14.8812 23.2993 13.8616L22.4042 12.0304ZM21.7515 15.4055L19.9511 16.3608C19.377 16.6654 18.9833 17.2072 18.8711 17.8473L18.519 19.8549C18.4526 20.2331 18.103 20.4871 17.7227 20.4334L15.7046 20.148C15.061 20.0568 14.4242 20.2639 13.9571 20.7157L12.4921 22.1328C12.2162 22.3997 11.7839 22.3997 11.5079 22.1328L10.043 20.7157C9.64824 20.3338 9.13215 20.1269 8.59338 20.1269C8.49466 20.1269 8.39514 20.1338 8.29549 20.1479L6.27739 20.4334C5.89742 20.4871 5.5475 20.233 5.48113 19.8548L5.12896 17.8472C5.01665 17.2071 4.62299 16.6653 4.04892 16.3608L2.24846 15.4054C1.90928 15.2255 1.77568 14.8144 1.94429 14.4694L2.83941 12.6382C3.12478 12.0544 3.12478 11.3847 2.83941 10.8008L1.94429 8.96969C1.77568 8.62474 1.90928 8.2136 2.24846 8.03365L4.04892 7.07834C4.62295 6.7737 5.01665 6.23192 5.12891 5.5918L5.48104 3.58425C5.54741 3.20607 5.897 2.952 6.2773 3.00572L8.29539 3.29119C8.93875 3.38227 9.57582 3.17522 10.0429 2.7234L11.5079 1.30628C11.7838 1.03938 12.2161 1.03938 12.4921 1.30628L13.957 2.7234C14.4241 3.17527 15.0611 3.38227 15.7045 3.29119L17.7226 3.00572C18.1026 2.95196 18.4525 3.20607 18.5189 3.58425L18.871 5.59185C18.9833 6.23197 19.377 6.7738 19.951 7.07834L21.7515 8.03365C22.0907 8.2136 22.2243 8.62474 22.0557 8.96969L21.1605 10.8008C20.8752 11.3846 20.8752 12.0544 21.1605 12.6382L22.0557 14.4693C22.2243 14.8144 22.0907 15.2255 21.7515 15.4055Z" fill="#ED1E79"/>
<path d="M17.0571 6.66243C16.7869 6.39215 16.3486 6.39215 16.0783 6.66243L6.94294 15.7978C6.67266 16.0681 6.67266 16.5064 6.94294 16.7766C7.07808 16.9118 7.25522 16.9794 7.43232 16.9794C7.60941 16.9794 7.7866 16.9118 7.92169 16.7766L17.0571 7.64126C17.3274 7.37094 17.3274 6.93275 17.0571 6.66243Z" fill="#ED1E79"/>
<path d="M9.2316 5.4906C7.83229 5.4906 6.69385 6.62905 6.69385 8.02835C6.69385 9.42766 7.83229 10.5661 9.2316 10.5661C10.6309 10.5661 11.7693 9.42766 11.7693 8.02835C11.7693 6.62905 10.6309 5.4906 9.2316 5.4906ZM9.2316 9.18184C8.59555 9.18184 8.0781 8.66439 8.0781 8.0283C8.0781 7.39226 8.59555 6.87481 9.2316 6.87481C9.86764 6.87481 10.3851 7.39226 10.3851 8.0283C10.3851 8.66439 9.86764 9.18184 9.2316 9.18184Z" fill="#ED1E79"/>
<path d="M14.7682 12.873C13.3689 12.873 12.2305 14.0115 12.2305 15.4108C12.2305 16.8101 13.3689 17.9485 14.7682 17.9485C16.1675 17.9485 17.306 16.8101 17.306 15.4108C17.306 14.0115 16.1675 12.873 14.7682 12.873ZM14.7682 16.5643C14.1322 16.5643 13.6147 16.0468 13.6147 15.4108C13.6147 14.7748 14.1321 14.2573 14.7682 14.2573C15.4043 14.2573 15.9217 14.7748 15.9217 15.4108C15.9217 16.0468 15.4043 16.5643 14.7682 16.5643Z" fill="#ED1E79"/>
</g>
<defs>
<clipPath id="clip0_24744_304">
<rect width="24" height="24" fill="white" transform="translate(0 0.841309)"/>
</clipPath>
</defs>
</svg>
