<svg width="25" height="24" viewBox="0 0 25 24" fill="none" xmlns="http://www.w3.org/2000/svg">
<path d="M12.5 0C9.01067 0 6.17188 2.8388 6.17188 6.32812C6.17188 9.81745 9.01067 12.6562 12.5 12.6562C15.9893 12.6562 18.8281 9.81745 18.8281 6.32812C18.8281 2.8388 15.9893 0 12.5 0Z" fill="#4F4F59"/>
<path d="M20.3734 16.7904C18.6409 15.0313 16.3442 14.0625 13.9062 14.0625H11.0938C8.65588 14.0625 6.35909 15.0313 4.62659 16.7904C2.90258 18.5409 1.95312 20.8515 1.95312 23.2969C1.95312 23.6852 2.26794 24 2.65625 24H22.3438C22.7321 24 23.0469 23.6852 23.0469 23.2969C23.0469 20.8515 22.0974 18.5409 20.3734 16.7904Z" fill="#4F4F59"/>
</svg>
