<svg width="26" height="26" viewBox="0 0 26 26" fill="none" xmlns="http://www.w3.org/2000/svg">
<circle cx="13" cy="13" r="13" fill="#1794EF"/>
<path d="M6.11719 10.7059C6.11719 9.86118 6.80193 9.17644 7.6466 9.17644H8.35749C8.86886 9.17644 9.34639 8.92088 9.63004 8.4954L10.2514 7.56337C10.535 7.13789 11.0126 6.88232 11.5239 6.88232H14.4751C14.9865 6.88232 15.464 7.13789 15.7477 7.56337L16.369 8.4954C16.6527 8.92088 17.1302 9.17644 17.6416 9.17644H18.3525C19.1972 9.17644 19.8819 9.86118 19.8819 10.7059V17.5882C19.8819 18.4329 19.1972 19.1176 18.3525 19.1176H7.6466C6.80193 19.1176 6.11719 18.4329 6.11719 17.5882V10.7059Z" stroke="white" stroke-width="2" stroke-linecap="round" stroke-linejoin="round"/>
<path d="M15.2937 13.7647C15.2937 15.0317 14.2665 16.0588 12.9995 16.0588C11.7325 16.0588 10.7054 15.0317 10.7054 13.7647C10.7054 12.4977 11.7325 11.4706 12.9995 11.4706C14.2665 11.4706 15.2937 12.4977 15.2937 13.7647Z" stroke="white" stroke-width="2" stroke-linecap="round" stroke-linejoin="round"/>
</svg>
