<svg width="25" height="24" viewBox="0 0 25 24" fill="none" xmlns="http://www.w3.org/2000/svg">
<path d="M8 0H0.5V7.5H8V0ZM6.5 6H2V1.5H6.5V6Z" fill="#4F4F59"/>
<path d="M5 3H3.5V4.5H5V3Z" fill="#4F4F59"/>
<path d="M17 0V7.5H24.5V0H17ZM23 6H18.5V1.5H23V6Z" fill="#4F4F59"/>
<path d="M21.5 3H20V4.5H21.5V3Z" fill="#4F4F59"/>
<path d="M0.5 24H8V16.5H0.5V24ZM2 18H6.5V22.5H2V18Z" fill="#4F4F59"/>
<path d="M5 19.5H3.5V21H5V19.5Z" fill="#4F4F59"/>
<path d="M15.5 0H12.5V1.5H15.5V0Z" fill="#4F4F59"/>
<path d="M12.5 6H14V4.5H15.5V3H11V1.5H9.5V3V3.75V4.5H12.5V6Z" fill="#4F4F59"/>
<path d="M11 6H9.5V7.5H11V6Z" fill="#4F4F59"/>
<path d="M15.5 7.5H14V9H9.5V10.5H15.5V7.5Z" fill="#4F4F59"/>
<path d="M2 13.5H3.5V12H2V9H0.5V15H2V13.5Z" fill="#4F4F59"/>
<path d="M5 9H3.5V10.5H5V9Z" fill="#4F4F59"/>
<path d="M9.5 15H12.5V13.5H11V12H8V9H6.5V12H5V15H6.5V13.5H7.25H8H9.5V15Z" fill="#4F4F59"/>
<path d="M15.5 12H14V15H15.5V12Z" fill="#4F4F59"/>
<path d="M14 16.5H9.5V18H12.5V22.5H9.5V24H14V22.5H17V21H14V16.5Z" fill="#4F4F59"/>
<path d="M11 19.5H9.5V21H11V19.5Z" fill="#4F4F59"/>
<path d="M17 16.5H15.5V19.5H17V16.5Z" fill="#4F4F59"/>
<path d="M23 19.5H18.5V24H20V21H23V19.5Z" fill="#4F4F59"/>
<path d="M24.5 22.5H21.5V24H24.5V22.5Z" fill="#4F4F59"/>
<path d="M24.5 16.5H23V18H24.5V16.5Z" fill="#4F4F59"/>
<path d="M18.5 18H20V13.5H17V15H18.5V18Z" fill="#4F4F59"/>
<path d="M21.5 10.5H20V9H18.5V10.5H17V12H23V10.5H24.5V9H21.5V10.5Z" fill="#4F4F59"/>
<path d="M24.5 13.5H21.5V15H24.5V13.5Z" fill="#4F4F59"/>
</svg>
