<svg width="24" height="24" viewBox="0 0 24 24" fill="none" xmlns="http://www.w3.org/2000/svg">
<g clip-path="url(#clip0_24860_3787)">
<g filter="url(#filter0_d_24860_3787)">
<path d="M11.2507 0.918672C11.6626 1.19264 12.337 1.19264 12.7483 0.918672L13.8366 0.1946C14.2485 -0.079366 14.8023 0.0388306 15.0668 0.457269L15.7668 1.56238C16.032 1.98047 16.6475 2.25478 17.1351 2.17219L18.4235 1.95368C18.9112 1.87109 19.3695 2.2042 19.4414 2.69385L19.6323 3.98588C19.7046 4.47578 20.1553 4.97818 20.6344 5.10177L21.8986 5.42803C22.3778 5.55187 22.6606 6.04375 22.528 6.52013L22.1772 7.77621C22.0442 8.25345 22.2529 8.89544 22.64 9.20304L23.6664 10.0187C24.0535 10.3263 24.1125 10.8901 23.7971 11.2717L22.9644 12.279C22.649 12.6606 22.5784 13.3315 22.8072 13.7703L23.4128 14.9286C23.6418 15.3677 23.4667 15.9068 23.0239 16.127L21.8535 16.7086C21.4108 16.9288 21.0736 17.5134 21.1047 18.0076L21.1852 19.3121C21.2165 19.806 20.8373 20.2275 20.3432 20.2487L19.0389 20.3041C18.5448 20.325 17.9993 20.7222 17.8267 21.1864L17.373 22.4106C17.2005 22.8751 16.6832 23.1058 16.2232 22.9234L15.0077 22.4425C14.5483 22.2599 13.8886 22.4007 13.5428 22.7543L12.6296 23.6878C12.2837 24.0415 11.7176 24.0415 11.3712 23.6884L10.4569 22.7541C10.1104 22.4007 9.45135 22.2601 8.99172 22.4425L7.7767 22.9234C7.31673 23.1058 6.79974 22.8748 6.6275 22.4106L6.17266 21.1864C6.00041 20.7219 5.45514 20.325 4.96106 20.3041L3.6568 20.2487C3.16264 20.2275 2.7837 19.806 2.81482 19.3121L2.89645 18.0076C2.92697 17.5134 2.58983 16.929 2.14704 16.7086L0.976901 16.127C0.534198 15.9068 0.359134 15.3673 0.588051 14.9286L1.19342 13.7703C1.42242 13.3313 1.35182 12.6604 1.03614 12.2796L0.202619 11.2714C-0.112462 10.8903 -0.0534805 10.3266 0.33366 10.019L1.36002 9.20339C1.74742 8.89578 1.95557 8.25431 1.82282 7.77707L1.47209 6.52039C1.33883 6.04315 1.62202 5.55179 2.10088 5.4288L3.36582 5.10143C3.84443 4.97818 4.29568 4.47604 4.36791 3.98613L4.55879 2.6941C4.6311 2.20445 5.08902 1.87143 5.57643 1.95394L6.86488 2.17244C7.35254 2.25504 7.96809 1.98047 8.23265 1.56263L8.93265 0.457525C9.19696 0.0394296 9.75061 -0.078767 10.1629 0.194857L11.2507 0.918672Z" fill="#4289FF"/>
</g>
<path d="M10.2354 16.5L6 12.3458L7.41103 10.9617L10.2354 13.7311L16.5886 7.5L18 8.88476L10.2354 16.5Z" fill="#F2F2F2"/>
</g>
<defs>
<filter id="filter0_d_24860_3787" x="-4" y="-3.95312" width="32" height="31.9062" filterUnits="userSpaceOnUse" color-interpolation-filters="sRGB">
<feFlood flood-opacity="0" result="BackgroundImageFix"/>
<feColorMatrix in="SourceAlpha" type="matrix" values="0 0 0 0 0 0 0 0 0 0 0 0 0 0 0 0 0 0 127 0" result="hardAlpha"/>
<feOffset/>
<feGaussianBlur stdDeviation="2"/>
<feComposite in2="hardAlpha" operator="out"/>
<feColorMatrix type="matrix" values="0 0 0 0 0 0 0 0 0 0 0 0 0 0 0 0 0 0 0.25 0"/>
<feBlend mode="normal" in2="BackgroundImageFix" result="effect1_dropShadow_24860_3787"/>
<feBlend mode="normal" in="SourceGraphic" in2="effect1_dropShadow_24860_3787" result="shape"/>
</filter>
<clipPath id="clip0_24860_3787">
<rect width="24" height="24" fill="white"/>
</clipPath>
</defs>
</svg>
