<svg width="16" height="16" viewBox="0 0 16 16" fill="none" xmlns="http://www.w3.org/2000/svg">
<g clip-path="url(#clip0_24871_3197)">
<path d="M15.7247 3.58626C15.877 3.58626 16.0005 3.46274 16.0005 3.31039C16.0005 3.15805 15.877 3.03453 15.7247 3.03453H12.6903V2.48283H15.7247C15.8771 2.48283 16.0006 2.35931 16.0006 2.20697C16.0006 2.05462 15.8771 1.9311 15.7247 1.9311H12.6903V1.65526C12.6903 1.35057 12.9373 1.10356 13.242 1.10356H15.4488C15.5952 1.10435 15.7356 1.04558 15.8378 0.940814C15.9546 0.826593 16.0136 0.665714 15.9983 0.503018C15.9627 0.211198 15.7118 -0.00615975 15.4179 0.00013322H11.8627C11.4057 0.00013322 11.0352 0.370655 11.0352 0.827699V15.1722C11.0352 15.6292 11.4057 15.9998 11.8627 15.9998C12.3198 15.9998 12.6903 15.6292 12.6903 15.1722V10.4826C12.6903 10.1779 12.9373 9.93094 13.242 9.93094H15.4488C15.6033 9.92992 15.7504 9.86459 15.8547 9.75061C15.959 9.63665 16.011 9.48435 15.9984 9.3304C15.9627 9.0386 15.7119 8.82125 15.418 8.82751H13.242C12.9373 8.82751 12.6903 8.58051 12.6903 8.27581V7.99995H15.7247C15.8771 7.99995 16.0006 7.87643 16.0006 7.72408C16.0006 7.57174 15.8771 7.44822 15.7247 7.44822H12.6903V6.89652H15.7247C15.8771 6.89652 16.0006 6.773 16.0006 6.62066C16.0006 6.46831 15.8771 6.34479 15.7247 6.34479H12.6903V5.79309H15.7247C15.8771 5.79309 16.0006 5.66957 16.0006 5.51723C16.0006 5.36488 15.8771 5.24136 15.7247 5.24136H12.6903V4.68966H15.7247C15.8771 4.68966 16.0006 4.56614 16.0006 4.4138C16.0006 4.26145 15.8771 4.13793 15.7247 4.13793H12.6903V3.58623H15.7247V3.58626Z" fill="#0F0B18"/>
<path d="M8.13026 11.5889C7.98837 11.5799 7.84592 11.5864 7.70545 11.6082C7.44962 11.6496 7.19911 11.5088 7.10132 11.2689L2.72623 0.17396C2.69595 0.0986287 2.63405 0.0404648 2.55695 0.0149506C2.47986 -0.0105636 2.39547 -0.000821357 2.32625 0.0415706C1.76907 0.396821 1.4481 1.02607 1.48765 1.68567C1.48836 1.96638 1.5456 2.24408 1.65593 2.5022L3.96484 8.39171L3.9814 8.42481L4.56346 9.91443C4.64822 10.1076 4.76792 10.2834 4.91656 10.433L5.58414 11.1006C5.89594 11.4109 6.07075 11.8331 6.06964 12.273V13.9888C6.06469 14.5205 6.27281 15.0321 6.64749 15.4094C7.0222 15.7867 7.53233 15.9983 8.06407 15.9971C9.10536 15.9646 9.93242 15.1106 9.93161 14.0688V13.5778C9.9444 12.5455 9.15878 11.678 8.13026 11.5889ZM8.82818 14.0688C8.82818 14.5259 8.45766 14.8964 8.00061 14.8964C7.54357 14.8964 7.17305 14.5259 7.17305 14.0688V13.5171C7.17305 13.0601 7.54357 12.6895 8.00061 12.6895C8.45766 12.6895 8.82818 13.0601 8.82818 13.5171V14.0688Z" fill="#0F0B18"/>
<path d="M4.52698 10.8221C4.32937 10.6252 4.17034 10.3932 4.05804 10.1379L3.66908 9.14209L2.83049 11.2689C2.73459 11.5106 2.48261 11.6521 2.22636 11.6082C2.08578 11.5873 1.94334 11.5818 1.80155 11.5917C0.772105 11.679 -0.0144899 12.5476 0.000202482 13.5806V14.0689C0.000492116 15.1107 0.82653 15.9647 1.86774 15.9998C2.39977 16.0005 2.90993 15.7883 3.28455 15.4105C3.65918 15.0328 3.86717 14.5208 3.86217 13.9888V12.273C3.86211 11.8333 4.03676 11.4116 4.34767 11.1006L4.57664 10.8717L4.52698 10.8221ZM2.75876 14.0689C2.75876 14.5259 2.38824 14.8964 1.9312 14.8964C1.47415 14.8964 1.10363 14.5259 1.10363 14.0689V13.5172C1.10363 13.0601 1.47415 12.6896 1.9312 12.6896C2.38824 12.6896 2.75876 13.0601 2.75876 13.5172V14.0689Z" fill="#0F0B18"/>
<path d="M8.44431 1.68564C8.4436 1.96635 8.38636 2.24406 8.27603 2.50218L6.26228 7.63861L5.26367 5.10072L7.20573 0.17396C7.23601 0.0986287 7.29791 0.0404647 7.375 0.0149506C7.45207 -0.0105636 7.53649 -0.000821357 7.60571 0.0415706C8.16289 0.396794 8.48386 1.02604 8.44431 1.68564Z" fill="#0F0B18"/>
</g>
<defs>
<clipPath id="clip0_24871_3197">
<rect width="16" height="16" fill="white"/>
</clipPath>
</defs>
</svg>
