<svg width="25" height="24" viewBox="0 0 25 24" fill="none" xmlns="http://www.w3.org/2000/svg">
<g clip-path="url(#clip0_25203_536)">
<path d="M23.5 8C22.948 8 22.5 7.553 22.5 7V3C22.5 2.448 22.051 2 21.5 2H17.5C16.948 2 16.5 1.553 16.5 1C16.5 0.447 16.948 0 17.5 0H21.5C23.154 0 24.5 1.346 24.5 3V7C24.5 7.553 24.052 8 23.5 8Z" fill="#4F4F59"/>
<path d="M21.5 24H17.5C16.948 24 16.5 23.553 16.5 23C16.5 22.447 16.948 22 17.5 22H21.5C22.051 22 22.5 21.552 22.5 21V17C22.5 16.447 22.948 16 23.5 16C24.052 16 24.5 16.447 24.5 17V21C24.5 22.654 23.154 24 21.5 24Z" fill="#4F4F59"/>
<path d="M7.5 24H3.5C1.846 24 0.5 22.654 0.5 21V17C0.5 16.447 0.948 16 1.5 16C2.052 16 2.5 16.447 2.5 17V21C2.5 21.552 2.949 22 3.5 22H7.5C8.052 22 8.5 22.447 8.5 23C8.5 23.553 8.052 24 7.5 24Z" fill="#4F4F59"/>
<path d="M1.5 8C0.948 8 0.5 7.553 0.5 7V3C0.5 1.346 1.846 0 3.5 0H7.5C8.052 0 8.5 0.447 8.5 1C8.5 1.553 8.052 2 7.5 2H3.5C2.949 2 2.5 2.448 2.5 3V7C2.5 7.553 2.052 8 1.5 8Z" fill="#4F4F59"/>
<path d="M18.5 11C17.948 11 17.5 10.553 17.5 10V7H7.5V10C7.5 10.553 7.052 11 6.5 11C5.948 11 5.5 10.553 5.5 10V7C5.5 5.897 6.397 5 7.5 5H17.5C18.603 5 19.5 5.897 19.5 7V10C19.5 10.553 19.052 11 18.5 11Z" fill="#4F4F59"/>
<path d="M21.5 14C21.5 14.553 21.052 15 20.5 15H19.5V17C19.5 18.103 18.603 19 17.5 19H7.5C6.397 19 5.5 18.103 5.5 17V15H4.5C3.948 15 3.5 14.553 3.5 14C3.5 13.447 3.948 13 4.5 13H20.5C21.052 13 21.5 13.447 21.5 14Z" fill="#4F4F59"/>
</g>
<defs>
<clipPath id="clip0_25203_536">
<rect width="24" height="24" fill="white" transform="translate(0.5)"/>
</clipPath>
</defs>
</svg>
