<svg width="24" height="24" viewBox="0 0 24 24" fill="none" xmlns="http://www.w3.org/2000/svg">
<path d="M21.5 8.00002C20.5476 8.00002 19.6701 8.34403 18.9922 8.92289C18.9506 7.8563 18.0766 7.00003 17 7.00003H12.5V6H15C16.103 6 17 5.10305 17 3.99998V2.00002C17 0.896953 16.103 0 15 0H9.00002C7.897 0 7 0.896953 7 2.00002V4.00003C7 5.10305 7.897 6 9.00002 6H11.5V6.99998H7C5.92352 6.99998 5.04948 7.8562 5.00781 8.92252C4.32995 8.34389 3.45241 7.99997 2.5 7.99997C1.67284 7.99997 1 8.67281 1 9.49997C1 10.3271 1.67284 11 2.5 11C2.92234 11 3.27977 11.3027 3.34961 11.7187L3.81152 14.4946C4.05517 15.9463 5.2998 17 6.7705 17H11.4475L11.1434 20.0408C9.01595 20.1741 7 20.8047 7 22C7 23.374 9.59181 24 12 24C14.4082 24 17 23.374 17 22C17 20.8047 14.9841 20.1741 12.8567 20.0408L12.5526 17H17.2295C18.7002 17 19.9449 15.9457 20.1885 14.4926L20.6504 11.7202C20.7203 11.3027 21.0777 10.9999 21.5 10.9999C22.3272 10.9999 23 10.3271 23 9.49992C23 8.67286 22.3271 8.00002 21.5 8.00002ZM9.00002 5.00002C8.44877 5.00002 8.00003 4.55128 8.00003 4.00003V2.00002C8.00003 1.44877 8.44877 1.00003 9.00002 1.00003H15C15.5513 1.00003 16 1.44877 16 2.00002V4.00003C16 4.55128 15.5513 5.00002 15 5.00002H9.00002ZM6.00002 9C6.00002 8.44875 6.44875 8.00002 7 8.00002H17C17.5512 8.00002 18 8.44875 18 9V10.2635C17.8622 10.5665 17.7488 10.884 17.6914 11.2266L17.2295 14L6.7705 14.0005L6.30859 11.2251C6.25122 10.8827 6.13773 10.5653 6.00002 10.2625V9ZM12.8706 21.8355C12.9654 21.731 13.0117 21.5908 12.9976 21.4502L12.9575 21.0499C15.0368 21.2062 16 21.8122 16 22C16 22.2568 14.6245 23 12 23C9.37553 23 8.00003 22.2568 8.00003 22C8.00003 21.8122 8.96327 21.2062 11.0425 21.0499L11.0025 21.4502C10.9883 21.5908 11.0347 21.731 11.1294 21.8355C11.2241 21.9405 11.3589 22 11.5 22H12.5C12.6411 22 12.7759 21.9405 12.8706 21.8355ZM21.5 9.99998C20.587 9.99998 19.815 10.6538 19.6641 11.5557L19.2022 14.3281C19.0396 15.2969 18.21 16 17.2295 16H6.7705C5.79002 16 4.96042 15.2974 4.79786 14.3296L4.33595 11.5542C4.18506 10.6538 3.41261 10 2.5 10C2.22414 10 1.99998 9.77592 1.99998 9.50002C1.99998 9.22416 2.22409 9 2.5 9C3.90334 9 5.09031 10.0054 5.32225 11.3896L5.78416 14.1665C5.8667 14.6494 6.28127 15 6.7705 15H17.2295C17.7188 15 18.1338 14.6489 18.2158 14.1636L18.6777 11.3911C18.9097 10.0058 20.0967 9 21.5 9C21.7758 9 22 9.22411 22 9.50002C22 9.77588 21.7759 9.99998 21.5 9.99998Z" fill="#ED1E79"/>
</svg>
