<svg width="16" height="16" viewBox="0 0 16 16" fill="none" xmlns="http://www.w3.org/2000/svg">
<g clip-path="url(#clip0_24871_3116)">
<path d="M5.79157 2.66689L7.52932 0.929152C7.78965 0.668798 8.21179 0.668798 8.47212 0.929152L10.2099 2.66689H12.6674C13.0356 2.66689 13.3341 2.96537 13.3341 3.33355V5.79108L15.0718 7.52883C15.3321 7.78917 15.3321 8.2113 15.0718 8.47163L13.3341 10.2094V12.6669C13.3341 13.0351 13.0356 13.3336 12.6674 13.3336H10.2099L8.47212 15.0713C8.21179 15.3316 7.78965 15.3316 7.52932 15.0713L5.79157 13.3336H3.33404C2.96585 13.3336 2.66737 13.0351 2.66737 12.6669V10.2094L0.92964 8.47163C0.669287 8.2113 0.669287 7.78917 0.92964 7.52883L2.66737 5.79108V3.33355C2.66737 2.96537 2.96585 2.66689 3.33404 2.66689H5.79157ZM4.00071 4.00022V6.34337L2.34385 8.00023L4.00071 9.6571V12.0002H6.34385L8.00072 13.6571L9.65759 12.0002H12.0007V9.6571L13.6576 8.00023L12.0007 6.34337V4.00022H9.65759L8.00072 2.34337L6.34385 4.00022H4.00071ZM8.00072 10.6669C6.52795 10.6669 5.33404 9.47297 5.33404 8.00023C5.33404 6.52746 6.52795 5.33355 8.00072 5.33355C9.47345 5.33355 10.6674 6.52746 10.6674 8.00023C10.6674 9.47297 9.47345 10.6669 8.00072 10.6669ZM8.00072 9.33356C8.73712 9.33356 9.33405 8.73663 9.33405 8.00023C9.33405 7.26383 8.73712 6.6669 8.00072 6.6669C7.26432 6.6669 6.66739 7.26383 6.66739 8.00023C6.66739 8.73663 7.26432 9.33356 8.00072 9.33356Z" fill="#0F0B18"/>
</g>
<defs>
<clipPath id="clip0_24871_3116">
<rect width="16" height="16" fill="white"/>
</clipPath>
</defs>
</svg>
