<svg width="18" height="11" viewBox="0 0 18 11" fill="none" xmlns="http://www.w3.org/2000/svg">
<path fill-rule="evenodd" clip-rule="evenodd" d="M12.4933 0.20846C12.8053 0.480871 12.8374 0.954657 12.565 1.26669L4.70786 10.2667C4.56543 10.4298 4.35943 10.5234 4.14287 10.5234C3.9263 10.5234 3.72031 10.4298 3.57788 10.2667L0.435023 6.66669C0.162612 6.35466 0.194733 5.88087 0.506767 5.60846C0.818802 5.33605 1.29259 5.36817 1.565 5.6802L4.14287 8.63304L11.435 0.280205C11.7074 -0.0318292 12.1812 -0.0639503 12.4933 0.20846Z" fill="#84C9BB"/>
<path fill-rule="evenodd" clip-rule="evenodd" d="M17.5175 0.2929C17.8174 0.578569 17.829 1.0533 17.5433 1.35325L8.97162 10.3532C8.82013 10.5123 8.60653 10.597 8.38721 10.5849C8.16789 10.5728 7.96489 10.4651 7.83182 10.2904L7.4035 9.72786C7.15256 9.39831 7.21629 8.92773 7.54584 8.67679C7.82895 8.46122 8.21614 8.47787 8.47874 8.69578L16.4571 0.318747C16.7428 0.0188032 17.2175 0.0072313 17.5175 0.2929Z" fill="#84C9BB"/>
</svg>
