<svg width="14" height="12" viewBox="0 0 14 12" fill="none" xmlns="http://www.w3.org/2000/svg">
<path d="M6.54597 0.484332C6.72468 0.0968958 7.27532 0.0968966 7.45403 0.484332L8.85773 3.52756C8.93057 3.68546 9.08021 3.79418 9.25289 3.81466L12.5809 4.20925C13.0046 4.25949 13.1748 4.78318 12.8615 5.07286L10.401 7.34827C10.2734 7.46634 10.2162 7.64225 10.2501 7.81281L10.9032 11.0999C10.9864 11.5184 10.5409 11.842 10.1686 11.6336L7.24422 9.9967C7.09248 9.91177 6.90752 9.91177 6.75578 9.9967L3.8314 11.6336C3.45909 11.842 3.01361 11.5184 3.09676 11.0999L3.74991 7.81281C3.78379 7.64225 3.72664 7.46634 3.59897 7.34827L1.13846 5.07286C0.825207 4.78318 0.995366 4.25949 1.41906 4.20925L4.74711 3.81466C4.91979 3.79418 5.06943 3.68546 5.14227 3.52756L6.54597 0.484332Z" fill="#ED1E79"/>
</svg>
