<svg width="24" height="24" viewBox="0 0 24 24" fill="none" xmlns="http://www.w3.org/2000/svg">
<g clip-path="url(#clip0_24744_266)">
<path d="M19.27 7.14425L20.707 5.70725L19.293 4.29275L17.7558 5.83C16.3514 4.83479 14.7127 4.22143 13 4.05V2H15V0H9.00001V2H11V4.05C9.28735 4.22143 7.64859 4.83479 6.24426 5.83L4.70701 4.29275L3.29301 5.70725L4.73001 7.14425C3.38865 8.56445 2.49265 10.3464 2.15264 12.2701C1.81263 14.1938 2.04351 16.175 2.81677 17.9689C3.59002 19.7629 4.87179 21.2911 6.50378 22.3648C8.13577 23.4385 10.0465 24.0106 12 24.0106C13.9535 24.0106 15.8642 23.4385 17.4962 22.3648C19.1282 21.2911 20.41 19.7629 21.1832 17.9689C21.9565 16.175 22.1874 14.1938 21.8474 12.2701C21.5074 10.3464 20.6114 8.56445 19.27 7.14425ZM12 22C10.4178 22 8.87104 21.5308 7.55544 20.6518C6.23985 19.7727 5.21447 18.5233 4.60897 17.0615C4.00347 15.5997 3.84504 13.9911 4.15372 12.4393C4.4624 10.8874 5.22433 9.46197 6.34315 8.34315C7.46197 7.22433 8.88744 6.4624 10.4393 6.15372C11.9911 5.84504 13.5997 6.00346 15.0615 6.60896C16.5233 7.21447 17.7727 8.23985 18.6518 9.55544C19.5308 10.871 20 12.4178 20 14C19.9976 16.121 19.154 18.1544 17.6542 19.6542C16.1545 21.154 14.121 21.9976 12 22Z" fill="#ED1E79"/>
<path d="M12 8V14H6C6 15.1867 6.35189 16.3467 7.01118 17.3334C7.67047 18.3201 8.60754 19.0892 9.7039 19.5433C10.8003 19.9974 12.0067 20.1162 13.1705 19.8847C14.3344 19.6532 15.4035 19.0818 16.2426 18.2426C17.0818 17.4035 17.6532 16.3344 17.8847 15.1705C18.1162 14.0067 17.9974 12.8003 17.5433 11.7039C17.0892 10.6075 16.3201 9.67047 15.3334 9.01118C14.3467 8.35189 13.1867 8 12 8Z" fill="#ED1E79"/>
</g>
<defs>
<clipPath id="clip0_24744_266">
<rect width="24" height="24" fill="white"/>
</clipPath>
</defs>
</svg>
