<svg width="24" height="24" viewBox="0 0 24 24" fill="none" xmlns="http://www.w3.org/2000/svg">
<g clip-path="url(#clip0_24865_2615)">
<path d="M16.5 21C17.4 21 18.375 20.7 19.125 20.175L22.725 23.775L23.775 22.725L20.175 19.125C21.6 17.1 21.15 14.325 19.125 12.825C17.1 11.325 14.325 11.85 12.825 13.875C11.325 15.9 11.85 18.675 13.875 20.175C14.625 20.7 15.6 21 16.5 21ZM16.5 13.5C18.15 13.5 19.5 14.85 19.5 16.5C19.5 18.15 18.15 19.5 16.5 19.5C14.85 19.5 13.5 18.15 13.5 16.5C13.5 14.85 14.85 13.5 16.5 13.5Z" fill="#ED1E79"/>
<path d="M11.2496 7.5V11.7L6.22461 16.725L7.27461 17.775L12.7496 12.3V7.5H11.2496Z" fill="#ED1E79"/>
<path d="M12 0C5.4 0 0 5.4 0 12C0 18.6 5.4 24 12 24V22.5C10.425 22.5 8.85 22.125 7.425 21.45L8.1 20.325L6.825 19.575L6.15 20.7C5.025 19.95 4.125 18.975 3.375 17.925L4.425 17.25L3.675 15.975L2.55 16.65C1.95 15.45 1.65 14.175 1.5 12.825H4.5V11.325H1.575C1.65 9.975 2.025 8.7 2.625 7.5L3.75 8.175L4.5 6.9L3.3 6.15C4.05 5.025 5.025 4.125 6.075 3.375L6.75 4.425L8.025 3.675L7.425 2.55C8.625 1.95 9.9 1.65 11.25 1.5V4.5H12.75V1.575C14.1 1.65 15.375 2.025 16.575 2.625L15.9 3.75L17.175 4.5L17.85 3.375C18.975 4.125 19.875 5.1 20.625 6.15L19.575 6.75L20.325 8.025L21.45 7.35C22.125 8.775 22.5 10.35 22.5 11.925H24C24 5.4 18.6 0 12 0Z" fill="#ED1E79"/>
</g>
<defs>
<clipPath id="clip0_24865_2615">
<rect width="24" height="24" fill="white"/>
</clipPath>
</defs>
</svg>
